<?xml version="1.0" encoding="UTF-8" standalone="no"?>
<svg
   xmlns:dc="http://purl.org/dc/elements/1.1/"
   xmlns:cc="http://creativecommons.org/ns#"
   xmlns:rdf="http://www.w3.org/1999/02/22-rdf-syntax-ns#"
   xmlns:svg="http://www.w3.org/2000/svg"
   xmlns="http://www.w3.org/2000/svg"
   enable-background="new"
   version="1.1"
   id="svg2"
   viewBox="0 0 224 320.00001"
   height="320"
   width="224">
  <defs
     id="defs4">
    <filter
       id="filter4152"
       style="color-interpolation-filters:sRGB">
      <feBlend
         id="feBlend4154"
         in2="BackgroundImage"
         mode="lighten" />
    </filter>
  </defs>
  <metadata
     id="metadata7">
    <rdf:RDF>
      <cc:Work
         rdf:about="">
        <dc:format>image/svg+xml</dc:format>
        <dc:type
           rdf:resource="http://purl.org/dc/dcmitype/StillImage" />
        <dc:title></dc:title>
      </cc:Work>
    </rdf:RDF>
  </metadata>
  <g
     transform="translate(0,-732.36222)"
     id="layer1">
    <rect
       ry="8.4250298"
       y="740.36224"
       x="8"
       height="303.99997"
       width="208"
       id="rect4159"
       style="fill:#2d2d2d;fill-opacity:1;stroke:#2d2d2d;stroke-width:16;stroke-linecap:round;stroke-linejoin:round;stroke-miterlimit:4;stroke-dasharray:none;stroke-opacity:1" />
    <path
       id="path4161"
       d="m 112,790.36222 0,40"
       style="fill:none;fill-rule:evenodd;stroke:#515151;stroke-width:4;stroke-linecap:round;stroke-linejoin:round;stroke-miterlimit:4;stroke-dasharray:none;stroke-opacity:1" />
    <path
       id="path4165"
       d="m 112,994.3622 0,-39.99998"
       style="fill:none;fill-rule:evenodd;stroke:#515151;stroke-width:4;stroke-linecap:round;stroke-linejoin:miter;stroke-miterlimit:4;stroke-dasharray:none;stroke-opacity:1" />
    <g
       transform="translate(-0.01275014,-9.9593921)"
       id="g4273">
      <g
         id="g4171"
         transform="matrix(-1.0030776,0,0,0.90136966,224.37023,90.762424)">
        <path
           id="path4167"
           d="m 112,932.36222 0,0 0,0 0,-40 32,-16 0,48 -32,16 -32,-16 0,-48 32,-16 32,16"
           style="fill:none;fill-rule:evenodd;stroke:#515151;stroke-width:4;stroke-linecap:round;stroke-linejoin:round;stroke-miterlimit:4;stroke-dasharray:none;stroke-opacity:1" />
        <path
           id="path4169"
           d="m 88,880.36222 24,12"
           style="fill:none;fill-rule:evenodd;stroke:#515151;stroke-width:4;stroke-linecap:round;stroke-linejoin:round;stroke-miterlimit:4;stroke-dasharray:none;stroke-opacity:1" />
      </g>
      <path
         style="fill:#515151;fill-opacity:1;stroke:none;stroke-width:4;stroke-linecap:round;stroke-linejoin:round;stroke-miterlimit:4;stroke-dasharray:none;stroke-opacity:1"
         id="path4211"
         d="m 99.48595,909.48541 a 3.3959846,3.3959846 0 0 1 -3.343828,3.39559 3.3959846,3.3959846 0 0 1 -3.446539,-3.29129 3.3959846,3.3959846 0 0 1 3.237962,-3.49668 3.3959846,3.3959846 0 0 1 3.545999,3.18388" />
      <path
         d="m 127.3431,916.09253 a 3.3959846,3.3959846 0 0 1 -3.34383,3.39558 3.3959846,3.3959846 0 0 1 -3.44654,-3.29128 3.3959846,3.3959846 0 0 1 3.23796,-3.49668 3.3959846,3.3959846 0 0 1 3.546,3.18388"
         id="path4229"
         style="fill:#515151;fill-opacity:1;stroke:none;stroke-width:4;stroke-linecap:round;stroke-linejoin:round;stroke-miterlimit:4;stroke-dasharray:none;stroke-opacity:1" />
      <path
         d="m 135.91452,901.44971 a 3.3959846,3.3959846 0 0 1 -3.34382,3.39558 3.3959846,3.3959846 0 0 1 -3.44654,-3.29128 3.3959846,3.3959846 0 0 1 3.23796,-3.49668 3.3959846,3.3959846 0 0 1 3.546,3.18387"
         id="path4240"
         style="fill:#515151;fill-opacity:1;stroke:none;stroke-width:4;stroke-linecap:round;stroke-linejoin:round;stroke-miterlimit:4;stroke-dasharray:none;stroke-opacity:1" />
      <path
         d="m 115.37881,886.09253 a 3.3959846,3.3959846 0 0 1 -3.34383,3.39558 3.3959846,3.3959846 0 0 1 -3.44654,-3.29128 3.3959846,3.3959846 0 0 1 3.23797,-3.49668 3.3959846,3.3959846 0 0 1 3.54599,3.18388"
         id="path4265"
         style="fill:#515151;fill-opacity:1;stroke:none;stroke-width:4;stroke-linecap:round;stroke-linejoin:round;stroke-miterlimit:4;stroke-dasharray:none;stroke-opacity:1" />
      <path
         d="m 115.55738,874.664 a 3.3959846,3.3959846 0 0 1 -3.34382,3.39559 3.3959846,3.3959846 0 0 1 -3.44654,-3.29129 3.3959846,3.3959846 0 0 1 3.23796,-3.49668 3.3959846,3.3959846 0 0 1 3.546,3.18388"
         id="path4267"
         style="fill:#515151;fill-opacity:1;stroke:none;stroke-width:4;stroke-linecap:round;stroke-linejoin:round;stroke-miterlimit:4;stroke-dasharray:none;stroke-opacity:1" />
      <path
         style="fill:#515151;fill-opacity:1;stroke:none;stroke-width:4;stroke-linecap:round;stroke-linejoin:round;stroke-miterlimit:4;stroke-dasharray:none;stroke-opacity:1"
         id="path4269"
         d="m 103.41452,880.02112 a 3.3959846,3.3959846 0 0 1 -3.34382,3.39558 3.3959846,3.3959846 0 0 1 -3.446543,-3.29128 3.3959846,3.3959846 0 0 1 3.237962,-3.49668 3.3959846,3.3959846 0 0 1 3.546001,3.18388" />
      <path
         d="m 127.52166,880.19971 a 3.3959846,3.3959846 0 0 1 -3.34382,3.39558 3.3959846,3.3959846 0 0 1 -3.44654,-3.29128 3.3959846,3.3959846 0 0 1 3.23796,-3.49668 3.3959846,3.3959846 0 0 1 3.546,3.18387"
         id="path4271"
         style="fill:#515151;fill-opacity:1;stroke:none;stroke-width:4;stroke-linecap:round;stroke-linejoin:round;stroke-miterlimit:4;stroke-dasharray:none;stroke-opacity:1" />
    </g>
  </g>
</svg>
