<svg xmlns="http://www.w3.org/2000/svg" width="224" height="320">
  <g transform="translate(0 -732.36214)">
    <rect width="208" height="303.99997" x="7.9999981" y="740.36212" fill="#fff" stroke="#fff" stroke-linecap="round" stroke-linejoin="round" stroke-width="16" ry="8.4250298"/>
    <text x="20.81802" y="1034.9791" fill="#d0021b" font-family="sans-serif" font-size="40" font-weight="400" letter-spacing="0" style="line-height:125%" word-spacing="0">
      <tspan x="20.81802" y="1034.9791" font-size="37.5">7</tspan>
    </text>
    <text x="181.5739" y="777.59222" fill="#d0021b" font-family="sans-serif" font-size="40" font-weight="400" letter-spacing="0" style="line-height:125%" word-spacing="0">
      <tspan x="181.5739" y="777.59222" font-size="37.5">7</tspan>
    </text>
    <path fill="#d0021b" d="M112.60104 828.36307a64.000516 64.000516 0 0 0-3.5508.0664 64.000516 64.000516 0 0 0-61.020024 65.89897 64.000516 64.000516 0 0 0 64.953654 62.02784A64.000516 64.000516 0 0 0 176 892.36359l-.12121-3.92971a64.000516 64.000516 0 0 0-63.27785-60.07081zm-14.511828 27.50412c3.483648-.2168 7.040368 1.78216 10.003978 3.64457 2.10764 1.32463 3.52683 2.4128 4.36723 3.07815.84267-.66615 2.26196-1.755 4.36722-3.07815 2.9636-1.86241 6.52035-3.86137 10.004-3.64457 9.16809.57101 18.16855 6.92746 22.4533 14.93372 4.76206 8.89787 3.81675 20.48841.0742 29.52368-3.41649 8.24807-12.31672 16.97606-20.36344 23.89471-8.04673 6.91846-15.29311 11.91026-15.29311 11.91026a1.7525635 1.7525635 0 0 1-1.23047.28906 1.7526126 1.7526126 0 0 1-.004 0 1.7526126 1.7526126 0 0 1-1.25001-.28906s-7.24637-4.9918-15.293098-11.91026c-8.04672-6.91865-16.94696-15.64664-20.36344-23.89471-3.74251-9.03527-4.68784-20.62581.0742-29.52368 4.28475-8.00626 13.2852-14.36271 22.45332-14.93372zm.21876 3.49613c-7.6411.476-15.92393 6.24709-19.5861 13.08995-4.05429 7.57546-3.33343 18.3046.0742 26.53147 2.90343 7.00946 11.52052 15.79485 19.41032 22.5783 7.241298 6.22607 13.220488 10.41675 14.254008 11.13681 1.03353-.72008 7.01272-4.91074 14.25402-11.13681 7.8898-6.78345 16.50689-15.56884 19.41032-22.5783 3.40764-8.22687 4.12459-18.95601.0704-26.53147-3.66217-6.84286-11.9411-12.61395-19.5822-13.08995-1.72868-.1076-5.18202 1.39539-7.92193 3.11721-2.73992 1.72201-4.86332 3.4844-4.86332 3.4844a1.7518254 1.7518254 0 0 1-1.36721.41017 1.7518254 1.7518254 0 0 1-1.37109-.41017s-2.12341-1.76239-4.86334-3.4844c-2.73992-1.72182-6.18935-3.22521-7.918018-3.11721z"/>
    <path fill="#d0021b" d="M112.60104 828.36307a64.000516 64.000516 0 0 0-3.5508.0664 64.000516 64.000516 0 0 0-61.020024 65.89897 64.000516 64.000516 0 0 0 64.953654 62.02784A64.000516 64.000516 0 0 0 176 892.36359l-.12121-3.92971a64.000516 64.000516 0 0 0-63.27785-60.07081zm-14.511828 27.50412c3.483648-.2168 7.040368 1.78216 10.003978 3.64457 2.10764 1.32463 3.52683 2.4128 4.36723 3.07815.84267-.66615 2.26196-1.755 4.36722-3.07815 2.9636-1.86241 6.52035-3.86137 10.004-3.64457 9.16809.57101 18.16855 6.92746 22.4533 14.93372 4.76206 8.89787 3.81675 20.48841.0742 29.52368-3.41649 8.24807-12.31672 16.97606-20.36344 23.89471-8.04673 6.91846-15.29311 11.91026-15.29311 11.91026a1.7525635 1.7525635 0 0 1-1.23047.28906 1.7526126 1.7526126 0 0 1-.004 0 1.7526126 1.7526126 0 0 1-1.25001-.28906s-7.24637-4.9918-15.293098-11.91026c-8.04672-6.91865-16.94696-15.64664-20.36344-23.89471-3.74251-9.03527-4.68784-20.62581.0742-29.52368 4.28475-8.00626 13.2852-14.36271 22.45332-14.93372zm.21876 3.49613c-7.6411.476-15.92393 6.24709-19.5861 13.08995-4.05429 7.57546-3.33343 18.3046.0742 26.53147 2.90343 7.00946 11.52052 15.79485 19.41032 22.5783 7.241298 6.22607 13.220488 10.41675 14.254008 11.13681 1.03353-.72008 7.01272-4.91074 14.25402-11.13681 7.8898-6.78345 16.50689-15.56884 19.41032-22.5783 3.40764-8.22687 4.12459-18.95601.0704-26.53147-3.66217-6.84286-11.9411-12.61395-19.5822-13.08995-1.72868-.1076-5.18202 1.39539-7.92193 3.11721-2.73992 1.72201-4.86332 3.4844-4.86332 3.4844a1.7518254 1.7518254 0 0 1-1.36721.41017 1.7518254 1.7518254 0 0 1-1.37109-.41017s-2.12341-1.76239-4.86334-3.4844c-2.73992-1.72182-6.18935-3.22521-7.918018-3.11721zM31.883261 748.46894a16.000129 16.000129 0 0 0-.8877.0166 16.000129 16.000129 0 0 0-15.255006 16.47475 16.000129 16.000129 0 0 0 16.238413 15.50696A16.000129 16.000129 0 0 0 47.733 764.46907l-.0303-.98242a16.000129 16.000129 0 0 0-15.819465-15.01771zm-3.627957 6.87603c.870912-.0542 1.760092.44554 2.500994.91115.52691.33115.881708.6032 1.091808.76953.210667-.16653.56549-.43875 1.091805-.76953.7409-.46561 1.630087-.96535 2.501-.91115 2.292022.14276 4.542137 1.73187 5.613324 3.73343 1.190515 2.22447.954188 5.12211.01855 7.38092-.854122 2.06202-3.079179 4.24402-5.090859 5.97368-2.011683 1.72962-3.823278 2.97757-3.823278 2.97757a.43814087.43814087 0 0 1-.307617.0723.43815314.43815314 0 0 1-.001 0 .43815314.43815314 0 0 1-.312503-.0723s-1.811592-1.24795-3.823274-2.97757c-2.01168-1.72966-4.23674-3.91166-5.09086-5.97368-.935627-2.25881-1.17196-5.15645.01855-7.38092 1.071188-2.00156 3.3213-3.59067 5.61333-3.73343zm.05469.87404c-1.910275.119-3.980982 1.56177-4.896525 3.27248-1.013572 1.89387-.833357 4.57615.01855 6.63287.725858 1.75237 2.88013 3.94871 4.85258 5.64458 1.810324 1.55651 3.305122 2.60418 3.563502 2.7842.258382-.18002 1.75318-1.22769 3.563505-2.7842 1.97245-1.69587 4.126722-3.89221 4.85258-5.64458.851909-2.05672 1.031147-4.739.0176-6.63287-.915543-1.71071-2.985275-3.15348-4.89555-3.27248-.43217-.0269-1.295505.34884-1.980483.7793-.68498.4305-1.21583.8711-1.21583.8711a.43795634.43795634 0 0 1-.341802.10254.43795634.43795634 0 0 1-.342773-.10254s-.530852-.4406-1.215835-.8711c-.68498-.43046-1.547337-.8063-1.979504-.7793zM191.86626 1004.4419a16.000129 16.000129 0 0 0-.8877.017 16.000129 16.000129 0 0 0-15.25501 16.4748 16.000129 16.000129 0 0 0 16.23842 15.507 16.000129 16.000129 0 0 0 15.75403-15.9982l-.0303-.9824a16.000129 16.000129 0 0 0-15.81947-15.0178zm-3.62796 6.8761c.87092-.054 1.7601.4455 2.501.9111.52691.3312.88171.6032 1.09181.7696.21066-.1666.56549-.4388 1.0918-.7696.7409-.4656 1.63009-.9653 2.501-.9111 2.29202.1427 4.54214 1.7318 5.61332 3.7334 1.19052 2.2245.95419 5.1221.0186 7.3809-.85412 2.062-3.07917 4.244-5.09085 5.9737-2.01169 1.7296-3.82328 2.9776-3.82328 2.9776a.43814087.43814087 0 0 1-.30762.072.43815314.43815314 0 0 1-.001 0 .43815314.43815314 0 0 1-.3125-.072s-1.81159-1.248-3.82328-2.9776c-2.01168-1.7297-4.23674-3.9117-5.09086-5.9737-.93562-2.2588-1.17196-5.1564.0186-7.3809 1.07119-2.0016 3.3213-3.5907 5.61333-3.7334zm.0547.874c-1.91027.119-3.98098 1.5618-4.89652 3.2725-1.01357 1.8939-.83336 4.5761.0186 6.6329.72586 1.7523 2.88013 3.9487 4.85258 5.6445 1.81032 1.5566 3.30512 2.6042 3.5635 2.7842.25838-.18 1.75318-1.2276 3.56351-2.7842 1.97245-1.6958 4.12672-3.8922 4.85258-5.6445.8519-2.0568 1.03114-4.739.0176-6.6329-.91555-1.7107-2.98528-3.1535-4.89555-3.2725-.43217-.027-1.29551.3489-1.98049.7793-.68498.4305-1.21583.8711-1.21583.8711a.43795634.43795634 0 0 1-.3418.1026.43795634.43795634 0 0 1-.34277-.1026s-.53085-.4406-1.21584-.8711c-.68498-.4304-1.54733-.8063-1.9795-.7793z"/>
  </g>
</svg>
