<?xml version="1.0" encoding="UTF-8" standalone="no"?>
<svg
   xmlns:osb="http://www.openswatchbook.org/uri/2009/osb"
   xmlns:dc="http://purl.org/dc/elements/1.1/"
   xmlns:cc="http://creativecommons.org/ns#"
   xmlns:rdf="http://www.w3.org/1999/02/22-rdf-syntax-ns#"
   xmlns:svg="http://www.w3.org/2000/svg"
   xmlns="http://www.w3.org/2000/svg"
   version="1.1"
   id="svg2"
   viewBox="0 0 224 320"
   height="320"
   width="224">
  <defs
     id="defs4">
    <linearGradient
       osb:paint="solid"
       id="linearGradient5747">
      <stop
         id="stop5749"
         offset="0"
         style="stop-color:#2d2d2d;stop-opacity:1;" />
    </linearGradient>
    <filter
       style="color-interpolation-filters:sRGB"
       id="filter4152">
      <feBlend
         mode="lighten"
         in2="BackgroundImage"
         id="feBlend4154" />
    </filter>
    <filter
       id="filter4724"
       style="color-interpolation-filters:sRGB">
      <feBlend
         id="feBlend4726"
         in2="BackgroundImage"
         mode="lighten" />
    </filter>
  </defs>
  <metadata
     id="metadata7">
    <rdf:RDF>
      <cc:Work
         rdf:about="">
        <dc:format>image/svg+xml</dc:format>
        <dc:type
           rdf:resource="http://purl.org/dc/dcmitype/StillImage" />
        <dc:title></dc:title>
      </cc:Work>
    </rdf:RDF>
  </metadata>
  <g
     transform="translate(0,-732.36214)"
     id="layer1">
    <rect
       ry="8.4250298"
       y="740.36212"
       x="7.9999981"
       height="303.99997"
       width="208"
       id="rect4159"
       style="fill:#ffffff;fill-opacity:1;stroke:#ffffff;stroke-width:16;stroke-linecap:round;stroke-linejoin:round;stroke-miterlimit:4;stroke-dasharray:none;stroke-opacity:1;" />
    <text
       id="text5865"
       y="1033.8527"
       x="21.573437"
       style="font-style:normal;font-weight:normal;font-size:40px;line-height:125%;font-family:sans-serif;letter-spacing:0px;word-spacing:0px;fill:#221e20;fill-opacity:1;stroke:none;stroke-width:1px;stroke-linecap:butt;stroke-linejoin:miter;stroke-opacity:1"
       xml:space="preserve"><tspan
         style="font-size:37.5px;fill:#221e20;fill-opacity:1"
         y="1033.8527"
         x="21.573437"
         id="tspan5867">6</tspan></text>
    <text
       id="text5869"
       y="1036.3622"
       x="16"
       style="font-style:normal;font-weight:normal;font-size:40px;line-height:125%;font-family:sans-serif;letter-spacing:0px;word-spacing:0px;fill:#000000;fill-opacity:1;stroke:none;stroke-width:1px;stroke-linecap:butt;stroke-linejoin:miter;stroke-opacity:1"
       xml:space="preserve"><tspan
         y="1036.3622"
         x="16"
         id="tspan5871"></tspan></text>
    <text
       xml:space="preserve"
       style="font-style:normal;font-weight:normal;font-size:40px;line-height:125%;font-family:sans-serif;letter-spacing:0px;word-spacing:0px;fill:#221e20;fill-opacity:1;stroke:none;stroke-width:1px;stroke-linecap:butt;stroke-linejoin:miter;stroke-opacity:1"
       x="179.3744"
       y="776.66626"
       id="text5873"><tspan
         id="tspan5875"
         x="179.3744"
         y="776.66626"
         style="font-size:37.5px;fill:#221e20;fill-opacity:1">6</tspan></text>
    <path
       id="path4967"
       d="m 112.60104,828.36307 a 64.000518,64.000518 0 0 0 -3.5508,0.0664 64.000518,64.000518 0 0 0 -61.020023,65.89897 64.000518,64.000518 0 0 0 64.953653,62.02784 A 64.000518,64.000518 0 0 0 176,892.36359 l -0.1212,-3.92972 a 64.000518,64.000518 0 0 0 -63.27776,-60.0708 z m -0.1368,16.50013 c 14.34272,0.134 26.1692,11.35967 27.051,25.67599 a 1.6095333,1.6095333 0 0 1 0.004,0.0508 l 0.0468,1.45313 c 10.78129,3.35383 18.54727,12.8852 19.26188,24.2463 a 1.6095333,1.6095333 0 0 1 0.004,0.0508 l 0.0468,1.57813 a 1.6095333,1.6095333 0 0 1 0.004,0.0508 c -8e-5,14.92912 -12.01424,27.1279 -26.94162,27.3557 a 1.6095333,1.6095333 0 0 0 -0.004,0 c -7.5569,0.1072 -14.71352,-3.01708 -19.94156,-8.40633 -5.02412,5.18225 -11.83576,8.28233 -19.097809,8.40633 -14.92594,0.2292 -27.310562,-11.59141 -27.769765,-26.51193 -0.369751,-12.5057 7.896065,-23.45335 19.808755,-26.91038 0.17342,-14.39912 11.49893,-26.33833 26.011929,-27.00802 0.50507,-0.0234 1.01007,-0.0334 1.51563,-0.0274 l 0,-0.004 z m -0.0312,3.22269 c -0.44608,-0.004 -0.89418,0.004 -1.33985,0.0234 -13.171479,0.60988 -23.395229,11.62807 -23.015799,24.80878 a 1.6095333,1.6095333 0 0 1 -1.23438,1.61329 c -11.12238,2.66882 -18.8324,12.7511 -18.49624,24.1838 0.40829,13.1975 11.29739,23.59773 24.5002,23.39473 6.90613,-0.11821 13.428919,-3.18743 17.922019,-8.43367 a 1.6095333,1.6095333 0 0 1 2.44532,0 c 4.665,5.44624 11.50559,8.53957 18.67593,8.43757 13.20277,-0.20141 23.76923,-10.92971 23.77363,-24.13302 l -0.0508,-1.50001 c -0.66162,-10.43229 -7.94638,-19.2408 -18.07046,-21.84782 a 1.6095333,1.6095333 0 0 1 -1.20703,-1.61721 c 0.008,-0.2468 0.014,-0.49129 0.016,-0.73829 l -0.0508,-1.54689 c -0.78601,-12.6543 -11.18769,-22.5263 -23.86736,-22.6447 z m -0.4453,77.22718 a 1.6095334,1.6095334 0 0 1 0.1328,0.008 1.6095334,1.6095334 0 0 1 1.11329,0.55859 c 9.58018,9.16833 12.4831,8.40666 18.96109,12.58604 a 1.6095333,1.6095333 0 0 1 -0.8711,2.96096 l -19.26578,0 -0.0468,0 a 1.6095333,1.6095333 0 0 1 -0.1054,-0.004 l -19.230619,0 a 1.6095334,1.6095334 0 0 1 -0.875,-2.95704 c 6.48449,-4.18338 9.389129,-3.41571 18.992329,-12.61338 a 1.6095333,1.6095333 0 0 1 0.33204,-0.27737 1.6095333,1.6095333 0 0 1 0.1406,-0.082 1.6095333,1.6095333 0 0 1 0.14461,-0.0664 1.6095333,1.6095333 0 0 1 0.1524,-0.0508 1.6095333,1.6095333 0 0 1 0.1562,-0.0352 1.6095333,1.6095333 0 0 1 0.1172,-0.016 1.6095334,1.6095334 0 0 1 0.1524,-0.012 z m 0.012,3.81253 c -5.91875,5.50853 -9.51582,7.44928 -12.863379,9.0821 l 12.851659,0 a 1.6095334,1.6095334 0 0 1 0.1602,0 l 12.71104,0 c -3.34622,-1.63218 -6.94293,-3.57577 -12.85948,-9.0821 z"
       style="fill:#221e20;fill-opacity:1;stroke:none;stroke-width:2;stroke-linecap:round;stroke-linejoin:round;stroke-miterlimit:4;stroke-dasharray:none;stroke-opacity:1" />
    <path
       style="fill:#221e20;fill-opacity:1;stroke:none;stroke-width:2;stroke-linecap:round;stroke-linejoin:round;stroke-miterlimit:4;stroke-dasharray:none;stroke-opacity:1"
       d="m 31.883261,748.46894 a 16.000129,16.000129 0 0 0 -0.8877,0.0166 16.000129,16.000129 0 0 0 -15.255006,16.47475 16.000129,16.000129 0 0 0 16.238413,15.50696 16.000129,16.000129 0 0 0 15.754033,-15.99818 l -0.0303,-0.98243 a 16.000129,16.000129 0 0 0 -15.81944,-15.0177 z m -0.0342,4.12504 c 3.58568,0.0335 6.5423,2.83991 6.76275,6.41899 a 0.40238332,0.40238332 0 0 1 10e-4,0.0127 l 0.0117,0.36329 c 2.695322,0.83845 4.636817,3.2213 4.81547,6.06157 a 0.40238332,0.40238332 0 0 1 10e-4,0.0127 l 0.0117,0.39453 a 0.40238332,0.40238332 0 0 1 0.001,0.0127 c -2e-5,3.73228 -3.00356,6.78198 -6.735405,6.83893 a 0.40238332,0.40238332 0 0 0 -0.001,0 c -1.889225,0.0268 -3.67838,-0.75427 -4.98539,-2.10158 -1.25603,1.29556 -2.95894,2.07058 -4.774453,2.10158 -3.731485,0.0573 -6.82764,-2.89785 -6.942441,-6.62798 -0.09244,-3.12643 1.974016,-5.86334 4.952189,-6.7276 0.04335,-3.59978 2.874732,-6.58458 6.502982,-6.752 0.126268,-0.006 0.252518,-0.008 0.378908,-0.007 l 0,-0.001 z m -0.0078,0.80567 c -0.11152,-10e-4 -0.223545,0.001 -0.334963,0.006 -3.29287,0.15247 -5.848807,2.90702 -5.75395,6.20219 a 0.40238332,0.40238332 0 0 1 -0.308595,0.40333 c -2.780595,0.6672 -4.7081,3.18777 -4.62406,6.04595 0.102073,3.29937 2.824348,5.89943 6.12505,5.84868 1.726533,-0.0295 3.35723,-0.79686 4.480505,-2.10842 a 0.40238332,0.40238332 0 0 1 0.61133,0 c 1.16625,1.36156 2.876398,2.13489 4.668983,2.10939 3.300692,-0.0503 5.942307,-2.73242 5.943407,-6.03325 l -0.0127,-0.375 c -0.165405,-2.60808 -1.986595,-4.8102 -4.517615,-5.46196 a 0.40238332,0.40238332 0 0 1 -0.301757,-0.4043 c 0.002,-0.0617 0.0035,-0.12282 0.004,-0.18457 l -0.0127,-0.38673 c -0.196503,-3.16357 -2.796923,-5.63157 -5.96684,-5.66117 z m -0.111325,19.30679 a 0.40238335,0.40238335 0 0 1 0.0332,0.002 0.40238335,0.40238335 0 0 1 0.278322,0.13965 c 2.395045,2.29208 3.120775,2.10167 4.740273,3.14651 a 0.40238332,0.40238332 0 0 1 -0.217775,0.74024 l -4.816445,0 -0.0117,0 a 0.40238332,0.40238332 0 0 1 -0.02635,-10e-4 l -4.807655,0 a 0.40238335,0.40238335 0 0 1 -0.21875,-0.73926 c 1.621122,-1.04584 2.347282,-0.85393 4.748082,-3.15334 a 0.40238332,0.40238332 0 0 1 0.08301,-0.0693 0.40238332,0.40238332 0 0 1 0.03515,-0.0205 0.40238332,0.40238332 0 0 1 0.03615,-0.0166 0.40238332,0.40238332 0 0 1 0.0381,-0.0127 0.40238332,0.40238332 0 0 1 0.03905,-0.009 0.40238332,0.40238332 0 0 1 0.0293,-0.004 0.40238335,0.40238335 0 0 1 0.0381,-0.003 z m 0.003,0.95314 c -1.479688,1.37713 -2.378955,1.86232 -3.215845,2.27052 l 3.212915,0 a 0.40238335,0.40238335 0 0 1 0.04005,0 l 3.17776,0 c -0.836555,-0.40804 -1.735733,-0.89394 -3.21487,-2.27052 z"
       id="path7431" />
    <path
       id="path7433"
       d="m 191.86626,1004.4419 a 16.000129,16.000129 0 0 0 -0.8877,0.017 16.000129,16.000129 0 0 0 -15.25501,16.4748 16.000129,16.000129 0 0 0 16.23842,15.507 16.000129,16.000129 0 0 0 15.75403,-15.9982 l -0.0303,-0.9825 a 16.000129,16.000129 0 0 0 -15.81944,-15.0177 z m -0.0342,4.1251 c 3.58568,0.034 6.5423,2.8399 6.76275,6.419 a 0.40238332,0.40238332 0 0 1 0.001,0.013 l 0.0117,0.3633 c 2.69532,0.8384 4.63682,3.2213 4.81547,6.0615 a 0.40238332,0.40238332 0 0 1 0.001,0.013 l 0.0117,0.3946 a 0.40238332,0.40238332 0 0 1 0.001,0.013 c -2e-5,3.7322 -3.00356,6.7819 -6.7354,6.8389 a 0.40238332,0.40238332 0 0 0 -0.001,0 c -1.88923,0.027 -3.67838,-0.7543 -4.98539,-2.1016 -1.25603,1.2956 -2.95894,2.0706 -4.77446,2.1016 -3.73148,0.057 -6.82764,-2.8979 -6.94244,-6.628 -0.0924,-3.1264 1.97402,-5.8633 4.95219,-6.7276 0.0434,-3.5998 2.87473,-6.5846 6.50298,-6.752 0.12627,-0.01 0.25252,-0.01 0.37891,-0.01 l 0,-0 z m -0.008,0.8057 c -0.11152,-10e-4 -0.22354,10e-4 -0.33496,0.01 -3.29287,0.1524 -5.84881,2.907 -5.75395,6.2021 a 0.40238332,0.40238332 0 0 1 -0.3086,0.4034 c -2.78059,0.6672 -4.7081,3.1877 -4.62406,6.0459 0.10208,3.2994 2.82435,5.8995 6.12505,5.8487 1.72654,-0.029 3.35723,-0.7969 4.48051,-2.1084 a 0.40238332,0.40238332 0 0 1 0.61133,0 c 1.16625,1.3615 2.8764,2.1349 4.66898,2.1094 3.30069,-0.05 5.94231,-2.7324 5.94341,-6.0333 l -0.0127,-0.375 c -0.16541,-2.6081 -1.9866,-4.8102 -4.51762,-5.4619 a 0.40238332,0.40238332 0 0 1 -0.30175,-0.4043 c 0.002,-0.062 0.004,-0.1229 0.004,-0.1846 l -0.0127,-0.3867 c -0.19651,-3.1636 -2.79693,-5.6316 -5.96684,-5.6612 z m -0.11132,19.3067 a 0.40238335,0.40238335 0 0 1 0.0332,0 0.40238335,0.40238335 0 0 1 0.27832,0.1397 c 2.39504,2.2921 3.12077,2.1017 4.74027,3.1465 a 0.40238332,0.40238332 0 0 1 -0.21777,0.7402 l -4.81645,0 -0.0117,0 a 0.40238332,0.40238332 0 0 1 -0.0263,-10e-4 l -4.80765,0 a 0.40238335,0.40238335 0 0 1 -0.21875,-0.7392 c 1.62112,-1.0459 2.34728,-0.8539 4.74808,-3.1534 a 0.40238332,0.40238332 0 0 1 0.083,-0.069 0.40238332,0.40238332 0 0 1 0.0351,-0.02 0.40238332,0.40238332 0 0 1 0.0362,-0.017 0.40238332,0.40238332 0 0 1 0.0381,-0.013 0.40238332,0.40238332 0 0 1 0.0391,-0.01 0.40238332,0.40238332 0 0 1 0.0293,-0 0.40238335,0.40238335 0 0 1 0.0381,-0 z m 0.003,0.9532 c -1.47969,1.3771 -2.37896,1.8623 -3.21585,2.2705 l 3.21292,0 a 0.40238335,0.40238335 0 0 1 0.0401,0 l 3.17776,0 c -0.83656,-0.408 -1.73574,-0.8939 -3.21487,-2.2705 z"
       style="fill:#221e20;fill-opacity:1;stroke:none;stroke-width:2;stroke-linecap:round;stroke-linejoin:round;stroke-miterlimit:4;stroke-dasharray:none;stroke-opacity:1" />
  </g>
</svg>
