<?xml version="1.0" encoding="UTF-8" standalone="no"?>
<svg
   xmlns:osb="http://www.openswatchbook.org/uri/2009/osb"
   xmlns:dc="http://purl.org/dc/elements/1.1/"
   xmlns:cc="http://creativecommons.org/ns#"
   xmlns:rdf="http://www.w3.org/1999/02/22-rdf-syntax-ns#"
   xmlns:svg="http://www.w3.org/2000/svg"
   xmlns="http://www.w3.org/2000/svg"
   version="1.1"
   id="svg2"
   viewBox="0 0 224 320"
   height="320"
   width="224">
  <defs
     id="defs4">
    <linearGradient
       osb:paint="solid"
       id="linearGradient5747">
      <stop
         id="stop5749"
         offset="0"
         style="stop-color:#2d2d2d;stop-opacity:1;" />
    </linearGradient>
    <filter
       style="color-interpolation-filters:sRGB"
       id="filter4152">
      <feBlend
         mode="lighten"
         in2="BackgroundImage"
         id="feBlend4154" />
    </filter>
    <filter
       id="filter4724"
       style="color-interpolation-filters:sRGB">
      <feBlend
         id="feBlend4726"
         in2="BackgroundImage"
         mode="lighten" />
    </filter>
  </defs>
  <metadata
     id="metadata7">
    <rdf:RDF>
      <cc:Work
         rdf:about="">
        <dc:format>image/svg+xml</dc:format>
        <dc:type
           rdf:resource="http://purl.org/dc/dcmitype/StillImage" />
        <dc:title></dc:title>
      </cc:Work>
    </rdf:RDF>
  </metadata>
  <g
     transform="translate(0,-732.36214)"
     id="layer1">
    <rect
       ry="8.4250298"
       y="740.36212"
       x="7.9999981"
       height="303.99997"
       width="208"
       id="rect4159"
       style="fill:#ffffff;fill-opacity:1;stroke:#ffffff;stroke-width:16;stroke-linecap:round;stroke-linejoin:round;stroke-miterlimit:4;stroke-dasharray:none;stroke-opacity:1;" />
    <g
       transform="matrix(1.7105383,0,0,1.6666495,57.26233,839.03011)"
       id="g5849"
       style="enable-background:new">
      <g
         transform="translate(0,-988.36213)"
         id="layer1-6">
        <path
           id="path4710"
           transform="translate(0,988.36213)"
           d="M 30.525391,0.03320312 A 32,32 0 0 0 0.015625,32.982422 32,32 0 0 0 32.492188,63.996094 32,32 0 0 0 64,32 L 63.93945,30.035156 A 32,32 0 0 0 30.525391,0.03320312 Z m 1.457031,6.96874998 a 1.0001,1.0001 0 0 1 0.849609,0.4433594 l 16,23.9999995 a 1.0001,1.0001 0 0 1 0,1.109376 l -16,24 a 1.0001,1.0001 0 0 1 -1.664062,0 l -16,-24 a 1.0001,1.0001 0 0 1 0,-1.109376 l 16,-23.9999995 A 1.0001,1.0001 0 0 1 31.982422,7.0019531 Z M 32,9.8027344 17.201172,32 32,54.197266 46.798828,32 32,9.8027344 Z"
           style="fill:#d0021b;fill-opacity:1;stroke:none;stroke-width:6;stroke-linecap:round;stroke-linejoin:round;stroke-miterlimit:4;stroke-dasharray:none;stroke-opacity:1" />
      </g>
    </g>
    <g
       style="enable-background:new"
       id="g5853"
       transform="matrix(0.42763458,0,0,0.41666239,18.470106,751.13632)">
      <g
         id="g5855"
         transform="translate(0,-988.36213)">
        <path
           style="fill:#d0021b;fill-opacity:1;stroke:none;stroke-width:6;stroke-linecap:round;stroke-linejoin:round;stroke-miterlimit:4;stroke-dasharray:none;stroke-opacity:1"
           d="M 30.525391,0.03320312 A 32,32 0 0 0 0.015625,32.982422 32,32 0 0 0 32.492188,63.996094 32,32 0 0 0 64,32 L 63.93945,30.035156 A 32,32 0 0 0 30.525391,0.03320312 Z m 1.457031,6.96874998 a 1.0001,1.0001 0 0 1 0.849609,0.4433594 l 16,23.9999995 a 1.0001,1.0001 0 0 1 0,1.109376 l -16,24 a 1.0001,1.0001 0 0 1 -1.664062,0 l -16,-24 a 1.0001,1.0001 0 0 1 0,-1.109376 l 16,-23.9999995 A 1.0001,1.0001 0 0 1 31.982422,7.0019531 Z M 32,9.8027344 17.201172,32 32,54.197266 46.798828,32 32,9.8027344 Z"
           transform="translate(0,988.36213)"
           id="path5857" />
      </g>
    </g>
    <g
       transform="matrix(0.42763458,0,0,0.41666239,178.45301,1007.109)"
       id="g5859"
       style="enable-background:new">
      <g
         transform="translate(0,-988.36213)"
         id="g5861">
        <path
           id="path5863"
           transform="translate(0,988.36213)"
           d="M 30.525391,0.03320312 A 32,32 0 0 0 0.015625,32.982422 32,32 0 0 0 32.492188,63.996094 32,32 0 0 0 64,32 L 63.93945,30.035156 A 32,32 0 0 0 30.525391,0.03320312 Z m 1.457031,6.96874998 a 1.0001,1.0001 0 0 1 0.849609,0.4433594 l 16,23.9999995 a 1.0001,1.0001 0 0 1 0,1.109376 l -16,24 a 1.0001,1.0001 0 0 1 -1.664062,0 l -16,-24 a 1.0001,1.0001 0 0 1 0,-1.109376 l 16,-23.9999995 A 1.0001,1.0001 0 0 1 31.982422,7.0019531 Z M 32,9.8027344 17.201172,32 32,54.197266 46.798828,32 32,9.8027344 Z"
           style="fill:#d0021b;fill-opacity:1;stroke:none;stroke-width:6;stroke-linecap:round;stroke-linejoin:round;stroke-miterlimit:4;stroke-dasharray:none;stroke-opacity:1" />
      </g>
    </g>
    <text
       id="text5865"
       y="1034.9791"
       x="20.81802"
       style="font-style:normal;font-weight:normal;font-size:40px;line-height:125%;font-family:sans-serif;letter-spacing:0px;word-spacing:0px;fill:#d0021b;fill-opacity:1;stroke:none;stroke-width:1px;stroke-linecap:butt;stroke-linejoin:miter;stroke-opacity:1"
       xml:space="preserve"><tspan
         style="font-size:37.5px"
         y="1034.9791"
         x="20.81802"
         id="tspan5867">6</tspan></text>
    <text
       id="text5869"
       y="1036.3622"
       x="16"
       style="font-style:normal;font-weight:normal;font-size:40px;line-height:125%;font-family:sans-serif;letter-spacing:0px;word-spacing:0px;fill:#000000;fill-opacity:1;stroke:none;stroke-width:1px;stroke-linecap:butt;stroke-linejoin:miter;stroke-opacity:1"
       xml:space="preserve"><tspan
         y="1036.3622"
         x="16"
         id="tspan5871"></tspan></text>
    <text
       xml:space="preserve"
       style="font-style:normal;font-weight:normal;font-size:40px;line-height:125%;font-family:sans-serif;letter-spacing:0px;word-spacing:0px;fill:#d0021b;fill-opacity:1;stroke:none;stroke-width:1px;stroke-linecap:butt;stroke-linejoin:miter;stroke-opacity:1"
       x="181.5739"
       y="777.59222"
       id="text5873"><tspan
         id="tspan5875"
         x="181.5739"
         y="777.59222"
         style="font-size:37.5px">6</tspan></text>
  </g>
</svg>
