<?xml version="1.0" encoding="UTF-8" standalone="no"?>
<svg
   xmlns:osb="http://www.openswatchbook.org/uri/2009/osb"
   xmlns:dc="http://purl.org/dc/elements/1.1/"
   xmlns:cc="http://creativecommons.org/ns#"
   xmlns:rdf="http://www.w3.org/1999/02/22-rdf-syntax-ns#"
   xmlns:svg="http://www.w3.org/2000/svg"
   xmlns="http://www.w3.org/2000/svg"
   version="1.1"
   id="svg2"
   viewBox="0 0 224 320"
   height="320"
   width="224">
  <defs
     id="defs4">
    <linearGradient
       osb:paint="solid"
       id="linearGradient5747">
      <stop
         id="stop5749"
         offset="0"
         style="stop-color:#2d2d2d;stop-opacity:1;" />
    </linearGradient>
    <filter
       style="color-interpolation-filters:sRGB"
       id="filter4152">
      <feBlend
         mode="lighten"
         in2="BackgroundImage"
         id="feBlend4154" />
    </filter>
    <filter
       id="filter4724"
       style="color-interpolation-filters:sRGB">
      <feBlend
         id="feBlend4726"
         in2="BackgroundImage"
         mode="lighten" />
    </filter>
  </defs>
  <metadata
     id="metadata7">
    <rdf:RDF>
      <cc:Work
         rdf:about="">
        <dc:format>image/svg+xml</dc:format>
        <dc:type
           rdf:resource="http://purl.org/dc/dcmitype/StillImage" />
        <dc:title></dc:title>
      </cc:Work>
    </rdf:RDF>
  </metadata>
  <g
     transform="translate(0,-732.36214)"
     id="layer1">
    <rect
       ry="8.4250298"
       y="740.36212"
       x="7.9999981"
       height="303.99997"
       width="208"
       id="rect4159"
       style="fill:#ffffff;fill-opacity:1;stroke:#ffffff;stroke-width:16;stroke-linecap:round;stroke-linejoin:round;stroke-miterlimit:4;stroke-dasharray:none;stroke-opacity:1;" />
    <text
       id="text5865"
       y="1031.8527"
       x="25.573437"
       style="font-style:normal;font-weight:normal;font-size:40px;line-height:125%;font-family:sans-serif;letter-spacing:0px;word-spacing:0px;fill:#221e20;fill-opacity:1;stroke:none;stroke-width:1px;stroke-linecap:butt;stroke-linejoin:miter;stroke-opacity:1"
       xml:space="preserve"><tspan
         style="font-size:37.5px;fill:#221e20;fill-opacity:1"
         y="1031.8527"
         x="25.573437"
         id="tspan5867">J</tspan></text>
    <text
       id="text5869"
       y="1036.3622"
       x="16"
       style="font-style:normal;font-weight:normal;font-size:40px;line-height:125%;font-family:sans-serif;letter-spacing:0px;word-spacing:0px;fill:#000000;fill-opacity:1;stroke:none;stroke-width:1px;stroke-linecap:butt;stroke-linejoin:miter;stroke-opacity:1"
       xml:space="preserve"><tspan
         y="1036.3622"
         x="16"
         id="tspan5871"></tspan></text>
    <text
       xml:space="preserve"
       style="font-style:normal;font-weight:normal;font-size:40px;line-height:125%;font-family:sans-serif;letter-spacing:0px;word-spacing:0px;fill:#221e20;fill-opacity:1;stroke:none;stroke-width:1px;stroke-linecap:butt;stroke-linejoin:miter;stroke-opacity:1"
       x="191.3744"
       y="772.66626"
       id="text5873"><tspan
         id="tspan5875"
         x="191.3744"
         y="772.66626"
         style="font-size:37.5px;fill:#221e20;fill-opacity:1">J</tspan></text>
    <path
       id="path4777"
       d="m 112.60104,828.36307 a 64.000516,64.000516 0 0 0 -3.5508,0.0664 64.000516,64.000516 0 0 0 -61.020024,65.89897 64.000516,64.000516 0 0 0 64.953654,62.02784 A 64.000516,64.000516 0 0 0 176,892.36359 l -0.12121,-3.92971 a 64.000516,64.000516 0 0 0 -63.27785,-60.07081 z m -0.4375,12.91417 a 1.7893743,1.7893743 0 0 1 0.1016,0 1.7893743,1.7893743 0 0 1 1.00391,0.33204 c 0,-2e-5 7.40204,5.09736 15.62123,12.16416 8.2192,7.06685 17.31124,15.98156 20.80094,24.40643 3.82273,9.22908 4.78598,21.06763 -0.0782,30.15651 -4.37659,8.17766 -13.56913,14.67491 -22.93378,15.25792 -3.55835,0.2216 -7.19168,-1.82418 -10.21882,-3.72659 -2.15092,-1.35175 -3.60137,-2.46386 -4.46098,-3.14455 -0.85961,0.68067 -2.31006,1.7928 -4.46098,3.14455 -3.02714,1.90241 -6.66047,3.94819 -10.218818,3.72659 -9.36465,-0.58301 -18.55719,-7.08026 -22.93378,-15.25792 -4.8641,-9.08888 -3.90087,-20.92743 -0.0782,-30.15651 3.4897,-8.42487 12.58174,-17.33958 20.80094,-24.40643 8.219188,-7.0668 15.621228,-12.16416 15.621228,-12.16416 a 1.7893743,1.7893743 0 0 1 0.95313,-0.32814 1.7893743,1.7893743 0 0 1 0.30078,0.012 1.7893743,1.7893743 0 0 1 0.1796,-0.016 z m -0.16406,3.83207 c -1.05579,0.73618 -7.16238,5.01972 -14.558718,11.37899 -8.0589,6.92905 -16.85871,15.90303 -19.82438,23.06268 -3.48067,8.40307 -4.21933,19.35982 -0.0782,27.09788 3.74067,6.98946 12.19924,12.88519 20.00408,13.37119 1.76568,0.1098 5.291268,-1.42479 8.089908,-3.18361 2.79864,-1.75881 4.96878,-3.56252 4.96878,-3.56252 a 1.7893743,1.7893743 0 0 1 1.39065,-0.42189 1.7893743,1.7893743 0 0 1 1.40625,0.42189 c 0,0 2.17016,1.80371 4.9688,3.56252 2.79862,1.75882 6.32423,3.29361 8.08991,3.18361 7.80484,-0.486 16.26339,-6.38173 20.00406,-13.37119 4.14121,-7.73806 3.40255,-18.69481 -0.0782,-27.09788 -2.96567,-7.15965 -11.76548,-16.13363 -19.82438,-23.06268 -7.39634,-6.35927 -13.50293,-10.64283 -14.55872,-11.37899 z m -0.3086,78.46937 a 1.7893743,1.7893743 0 0 1 0.1796,0.004 1.7893743,1.7893743 0 0 1 0.1758,0.0234 1.7893743,1.7893743 0 0 1 1.01563,0.5586 c 10.68762,10.23971 13.91289,9.37836 21.12517,14.03136 a 1.7893743,1.7893743 0 0 1 -0.97265,3.28908 l -21.46893,0 a 1.7893743,1.7893743 0 0 1 -0.0274,0 l -21.468918,0 a 1.7893743,1.7893743 0 0 1 -0.96876,-3.28908 c 7.21778,-4.65656 10.43754,-3.78641 21.144708,-14.0509 a 1.7893743,1.7893743 0 0 1 0.4414,-0.34374 1.7893743,1.7893743 0 0 1 0.1602,-0.0782 1.7893743,1.7893743 0 0 1 0.168,-0.0624 1.7893743,1.7893743 0 0 1 0.02,-0.008 1.7893743,1.7893743 0 0 1 0.1094,-0.0274 1.7893743,1.7893743 0 0 1 0.043,-0.012 1.7893743,1.7893743 0 0 1 0.0546,-0.008 1.7893743,1.7893743 0 0 1 0.1446,-0.02 1.7893743,1.7893743 0 0 1 0.125,-0.008 z m 0.043,4.23441 c -6.57894,6.12197 -10.57995,8.27903 -14.300898,10.09382 l 14.285278,0 a 1.7893743,1.7893743 0 0 1 0.1368,0 l 14.17589,0 c -3.72041,-1.81459 -7.71932,-3.97269 -14.29699,-10.09382 z"
       style="fill:#221e20;fill-opacity:1;stroke:none;stroke-width:2;stroke-linecap:round;stroke-linejoin:round;stroke-miterlimit:4;stroke-dasharray:none;stroke-opacity:1" />
    <path
       style="fill:#221e20;fill-opacity:1;stroke:none;stroke-width:2;stroke-linecap:round;stroke-linejoin:round;stroke-miterlimit:4;stroke-dasharray:none;stroke-opacity:1"
       d="m 31.883261,748.46894 a 16.000129,16.000129 0 0 0 -0.8877,0.0166 16.000129,16.000129 0 0 0 -15.255006,16.47475 16.000129,16.000129 0 0 0 16.238413,15.50696 16.000129,16.000129 0 0 0 15.754033,-15.99818 l -0.0303,-0.98242 A 16.000129,16.000129 0 0 0 31.883236,748.46894 Z m -0.109375,3.22855 a 0.44734357,0.44734357 0 0 1 0.0254,0 0.44734357,0.44734357 0 0 1 0.250977,0.083 c 0,-10e-6 1.85051,1.27434 3.905308,3.04104 2.0548,1.76671 4.32781,3.99539 5.200235,6.1016 0.955682,2.30727 1.196495,5.26691 -0.01955,7.53913 -1.094148,2.04442 -3.392283,3.66873 -5.733445,3.81448 -0.889588,0.0554 -1.79792,-0.45604 -2.554705,-0.93165 -0.53773,-0.33793 -0.900343,-0.61596 -1.115245,-0.78613 -0.214903,0.17016 -0.577515,0.4482 -1.115245,0.78613 -0.756785,0.47561 -1.665118,0.98705 -2.554705,0.93165 -2.341162,-0.14575 -4.639297,-1.77006 -5.733444,-3.81448 -1.216025,-2.27222 -0.975218,-5.23186 -0.01955,-7.53913 0.872424,-2.10621 3.145434,-4.33489 5.200234,-6.1016 2.054797,-1.7667 3.905307,-3.04104 3.905307,-3.04104 a 0.44734357,0.44734357 0 0 1 0.238283,-0.082 0.44734357,0.44734357 0 0 1 0.0752,0.003 0.44734357,0.44734357 0 0 1 0.0449,-0.004 z m -0.04101,0.95801 c -0.263948,0.18405 -1.790595,1.25493 -3.63968,2.84475 -2.014725,1.73226 -4.214677,3.97576 -4.956095,5.76567 -0.870167,2.10077 -1.054832,4.83996 -0.01955,6.77447 0.935168,1.74737 3.04981,3.2213 5.00102,3.3428 0.44142,0.0275 1.322817,-0.3562 2.022477,-0.7959 0.69966,-0.43971 1.242195,-0.89063 1.242195,-0.89063 a 0.44734357,0.44734357 0 0 1 0.347663,-0.10548 0.44734357,0.44734357 0 0 1 0.351562,0.10548 c 0,0 0.54254,0.45092 1.2422,0.89063 0.699655,0.4397 1.581058,0.8234 2.022478,0.7959 1.95121,-0.1215 4.065847,-1.59543 5.001015,-3.3428 1.035302,-1.93451 0.850637,-4.6737 -0.01955,-6.77447 -0.741418,-1.78991 -2.94137,-4.03341 -4.956095,-5.76567 -1.849085,-1.58982 -3.375733,-2.66071 -3.63968,-2.84475 z m -0.07715,19.61735 a 0.44734357,0.44734357 0 0 1 0.0449,0.001 0.44734357,0.44734357 0 0 1 0.04395,0.006 0.44734357,0.44734357 0 0 1 0.253907,0.13965 c 2.671905,2.55992 3.478223,2.34459 5.281293,3.50784 a 0.44734357,0.44734357 0 0 1 -0.243163,0.82227 l -5.367232,0 a 0.44734357,0.44734357 0 0 1 -0.0069,0 l -5.36723,0 a 0.44734357,0.44734357 0 0 1 -0.24219,-0.82227 c 1.804445,-1.16414 2.609385,-0.94661 5.286177,-3.51273 a 0.44734357,0.44734357 0 0 1 0.11035,-0.0859 0.44734357,0.44734357 0 0 1 0.04005,-0.0195 0.44734357,0.44734357 0 0 1 0.042,-0.0156 0.44734357,0.44734357 0 0 1 0.005,-0.002 0.44734357,0.44734357 0 0 1 0.02735,-0.007 0.44734357,0.44734357 0 0 1 0.01075,-0.003 0.44734357,0.44734357 0 0 1 0.01365,-0.002 0.44734357,0.44734357 0 0 1 0.03615,-0.005 0.44734357,0.44734357 0 0 1 0.03125,-0.002 z m 0.01075,1.0586 c -1.644735,1.53049 -2.644988,2.06976 -3.575225,2.52345 l 3.57132,0 a 0.44734357,0.44734357 0 0 1 0.0342,0 l 3.543972,0 c -0.930102,-0.45364 -1.92983,-0.99317 -3.574247,-2.52345 z"
       id="path7612" />
    <path
       id="path7614"
       d="m 191.86626,1004.4419 a 16.000129,16.000129 0 0 0 -0.8877,0.017 16.000129,16.000129 0 0 0 -15.25501,16.4748 16.000129,16.000129 0 0 0 16.23842,15.507 16.000129,16.000129 0 0 0 15.75403,-15.9982 l -0.0303,-0.9824 a 16.000129,16.000129 0 0 0 -15.81946,-15.0178 z m -0.10937,3.2286 a 0.44734357,0.44734357 0 0 1 0.0254,0 0.44734357,0.44734357 0 0 1 0.25097,0.083 c 0,0 1.85051,1.2743 3.90531,3.041 2.0548,1.7667 4.32781,3.9954 5.20024,6.1016 0.95568,2.3073 1.19649,5.2669 -0.0196,7.5392 -1.09415,2.0444 -3.39229,3.6687 -5.73345,3.8144 -0.88959,0.055 -1.79792,-0.456 -2.5547,-0.9316 -0.53773,-0.3379 -0.90035,-0.616 -1.11525,-0.7861 -0.2149,0.1701 -0.57751,0.4482 -1.11524,0.7861 -0.75679,0.4756 -1.66512,0.987 -2.55471,0.9316 -2.34116,-0.1457 -4.6393,-1.77 -5.73344,-3.8144 -1.21603,-2.2723 -0.97522,-5.2319 -0.0195,-7.5392 0.87242,-2.1062 3.14543,-4.3349 5.20023,-6.1016 2.0548,-1.7667 3.90531,-3.041 3.90531,-3.041 a 0.44734357,0.44734357 0 0 1 0.23828,-0.082 0.44734357,0.44734357 0 0 1 0.0752,0 0.44734357,0.44734357 0 0 1 0.0449,-0 z m -0.041,0.958 c -0.26395,0.1841 -1.7906,1.2549 -3.63968,2.8448 -2.01473,1.7322 -4.21468,3.9757 -4.9561,5.7656 -0.87017,2.1008 -1.05483,4.84 -0.0196,6.7745 0.93517,1.7474 3.04981,3.2213 5.00102,3.3428 0.44142,0.028 1.32282,-0.3562 2.02248,-0.7959 0.69966,-0.4397 1.24219,-0.8906 1.24219,-0.8906 a 0.44734357,0.44734357 0 0 1 0.34767,-0.1055 0.44734357,0.44734357 0 0 1 0.35156,0.1055 c 0,0 0.54254,0.4509 1.2422,0.8906 0.69965,0.4397 1.58106,0.8234 2.02248,0.7959 1.95121,-0.1215 4.06584,-1.5954 5.00101,-3.3428 1.0353,-1.9345 0.85064,-4.6737 -0.0196,-6.7745 -0.74142,-1.7899 -2.94137,-4.0334 -4.95609,-5.7656 -1.84909,-1.5899 -3.37574,-2.6608 -3.63968,-2.8448 z m -0.0771,19.6174 a 0.44734357,0.44734357 0 0 1 0.0449,0 0.44734357,0.44734357 0 0 1 0.0439,0.01 0.44734357,0.44734357 0 0 1 0.2539,0.1396 c 2.67191,2.5599 3.47823,2.3446 5.2813,3.5078 a 0.44734357,0.44734357 0 0 1 -0.24317,0.8223 l -5.36723,0 a 0.44734357,0.44734357 0 0 1 -0.007,0 l -5.36723,0 a 0.44734357,0.44734357 0 0 1 -0.24219,-0.8223 c 1.80445,-1.1641 2.60939,-0.9466 5.28618,-3.5127 a 0.44734357,0.44734357 0 0 1 0.11035,-0.086 0.44734357,0.44734357 0 0 1 0.0401,-0.019 0.44734357,0.44734357 0 0 1 0.042,-0.016 0.44734357,0.44734357 0 0 1 0.005,-0 0.44734357,0.44734357 0 0 1 0.0273,-0.01 0.44734357,0.44734357 0 0 1 0.0108,-0 0.44734357,0.44734357 0 0 1 0.0137,-0 0.44734357,0.44734357 0 0 1 0.0361,-0.01 0.44734357,0.44734357 0 0 1 0.0312,-0 z m 0.0108,1.0586 c -1.64474,1.5304 -2.64499,2.0697 -3.57523,2.5234 l 3.57132,0 a 0.44734357,0.44734357 0 0 1 0.0342,0 l 3.54397,0 c -0.9301,-0.4536 -1.92983,-0.9932 -3.57424,-2.5234 z"
       style="fill:#221e20;fill-opacity:1;stroke:none;stroke-width:2;stroke-linecap:round;stroke-linejoin:round;stroke-miterlimit:4;stroke-dasharray:none;stroke-opacity:1" />
  </g>
</svg>
