<svg xmlns="http://www.w3.org/2000/svg" viewBox="0 0 224 320.00001"><g transform="translate(0 -732.36222)"><rect width="208" height="303.99997" x="8" y="740.36224" fill="#2d2d2d" stroke="#2d2d2d" stroke-linecap="round" stroke-linejoin="round" stroke-width="16" ry="8.4250298"/><path fill="none" stroke="#515151" stroke-linecap="round" stroke-linejoin="round" stroke-width="4" d="M112 790.36222v40"/><path fill="none" stroke="#515151" stroke-linecap="round" stroke-width="4" d="M112 994.3622v-39.99998"/><g fill="none" stroke="#515151" stroke-linecap="round" stroke-linejoin="round" stroke-width="4"><path d="M112 932.36222v-40l32-16v48l-32 16-32-16v-48l32-16 32 16M88 880.36222l24 12" transform="matrix(-1.00308 0 0 .90137 224.35747986 80.8030319)"/></g><path fill="#515151" d="M99.47319986 899.5260179a3.3959846 3.3959846 0 0 1-3.343828 3.39559 3.3959846 3.3959846 0 0 1-3.446539-3.29129 3.3959846 3.3959846 0 0 1 3.237962-3.49668 3.3959846 3.3959846 0 0 1 3.545999 3.18388M127.33034986 906.1331379a3.3959846 3.3959846 0 0 1-3.34383 3.39558 3.3959846 3.3959846 0 0 1-3.44654-3.29128 3.3959846 3.3959846 0 0 1 3.23796-3.49668 3.3959846 3.3959846 0 0 1 3.546 3.18388M135.90176986 891.4903179a3.3959846 3.3959846 0 0 1-3.34382 3.39558 3.3959846 3.3959846 0 0 1-3.44654-3.29128 3.3959846 3.3959846 0 0 1 3.23796-3.49668 3.3959846 3.3959846 0 0 1 3.546 3.18387M115.36605986 876.1331379a3.3959846 3.3959846 0 0 1-3.34383 3.39558 3.3959846 3.3959846 0 0 1-3.44654-3.29128 3.3959846 3.3959846 0 0 1 3.23797-3.49668 3.3959846 3.3959846 0 0 1 3.54599 3.18388M115.54462986 864.7046079a3.3959846 3.3959846 0 0 1-3.34382 3.39559 3.3959846 3.3959846 0 0 1-3.44654-3.29129 3.3959846 3.3959846 0 0 1 3.23796-3.49668 3.3959846 3.3959846 0 0 1 3.546 3.18388M103.40176986 870.0617279a3.3959846 3.3959846 0 0 1-3.34382 3.39558 3.3959846 3.3959846 0 0 1-3.446543-3.29128 3.3959846 3.3959846 0 0 1 3.237962-3.49668 3.3959846 3.3959846 0 0 1 3.546001 3.18388M127.50890986 870.2403179a3.3959846 3.3959846 0 0 1-3.34382 3.39558 3.3959846 3.3959846 0 0 1-3.44654-3.29128 3.3959846 3.3959846 0 0 1 3.23796-3.49668 3.3959846 3.3959846 0 0 1 3.546 3.18387"/></g></svg>
