<svg xmlns="http://www.w3.org/2000/svg" width="224" height="320">
  <g transform="translate(0 -732.36214)">
    <rect width="208" height="303.99997" x="7.9999981" y="740.36212" fill="#fff" stroke="#fff" stroke-linecap="round" stroke-linejoin="round" stroke-width="16" ry="8.4250298"/>
    <text x="19.573437" y="1034.201" fill="#221e20" font-family="sans-serif" font-size="40" font-weight="400" letter-spacing="0" style="line-height:125%" word-spacing="0">
      <tspan x="19.573437" y="1034.201" font-size="37.5">A</tspan>
    </text>
    <text x="179.50349" y="776.66626" fill="#221e20" font-family="sans-serif" font-size="40" font-weight="400" letter-spacing="0" style="line-height:125%" word-spacing="0">
      <tspan x="179.50349" y="776.66626" font-size="37.5">A</tspan>
    </text>
    <path fill="#221e20" d="M112.60104 828.36307a64.000518 64.000518 0 0 0-3.5508.0664 64.000518 64.000518 0 0 0-61.020023 65.89897 64.000518 64.000518 0 0 0 64.953653 62.02784A64.000518 64.000518 0 0 0 176 892.36359l-.1212-3.92972a64.000518 64.000518 0 0 0-63.27776-60.0708zm-.1368 16.50013c14.34272.134 26.1692 11.35967 27.051 25.67599a1.6095333 1.6095333 0 0 1 .004.0508l.0468 1.45313c10.78129 3.35383 18.54727 12.8852 19.26188 24.2463a1.6095333 1.6095333 0 0 1 .004.0508l.0468 1.57813a1.6095333 1.6095333 0 0 1 .004.0508c-.00008 14.92912-12.01424 27.1279-26.94162 27.3557a1.6095333 1.6095333 0 0 0-.004 0c-7.5569.1072-14.71352-3.01708-19.94156-8.40633-5.02412 5.18225-11.83576 8.28233-19.097809 8.40633-14.92594.2292-27.310562-11.59141-27.769765-26.51193-.369751-12.5057 7.896065-23.45335 19.808755-26.91038.17342-14.39912 11.49893-26.33833 26.011929-27.00802.50507-.0234 1.01007-.0334 1.51563-.0274v-.004zm-.0312 3.22269c-.44608-.004-.89418.004-1.33985.0234-13.171479.60988-23.395229 11.62807-23.015799 24.80878a1.6095333 1.6095333 0 0 1-1.23438 1.61329c-11.12238 2.66882-18.8324 12.7511-18.49624 24.1838.40829 13.1975 11.29739 23.59773 24.5002 23.39473 6.90613-.11821 13.428919-3.18743 17.922019-8.43367a1.6095333 1.6095333 0 0 1 2.44532 0c4.665 5.44624 11.50559 8.53957 18.67593 8.43757 13.20277-.20141 23.76923-10.92971 23.77363-24.13302l-.0508-1.50001c-.66162-10.43229-7.94638-19.2408-18.07046-21.84782a1.6095333 1.6095333 0 0 1-1.20703-1.61721c.008-.2468.014-.49129.016-.73829l-.0508-1.54689c-.78601-12.6543-11.18769-22.5263-23.86736-22.6447zm-.4453 77.22718a1.6095334 1.6095334 0 0 1 .1328.008 1.6095334 1.6095334 0 0 1 1.11329.55859c9.58018 9.16833 12.4831 8.40666 18.96109 12.58604a1.6095333 1.6095333 0 0 1-.8711 2.96096h-19.31258a1.6095333 1.6095333 0 0 1-.1054-.004H92.675221a1.6095334 1.6095334 0 0 1-.875-2.95704c6.48449-4.18338 9.389129-3.41571 18.992329-12.61338a1.6095333 1.6095333 0 0 1 .33204-.27737 1.6095333 1.6095333 0 0 1 .1406-.082 1.6095333 1.6095333 0 0 1 .14461-.0664 1.6095333 1.6095333 0 0 1 .1524-.0508 1.6095333 1.6095333 0 0 1 .1562-.0352 1.6095333 1.6095333 0 0 1 .1172-.016 1.6095334 1.6095334 0 0 1 .1524-.012zm.012 3.81253c-5.91875 5.50853-9.51582 7.44928-12.863379 9.0821h12.851659a1.6095334 1.6095334 0 0 1 .1602 0h12.71104c-3.34622-1.63218-6.94293-3.57577-12.85948-9.0821zM31.883261 748.46894a16.000129 16.000129 0 0 0-.8877.0166 16.000129 16.000129 0 0 0-15.255006 16.47475 16.000129 16.000129 0 0 0 16.238413 15.50696 16.000129 16.000129 0 0 0 15.754033-15.99818l-.0303-.98243a16.000129 16.000129 0 0 0-15.81944-15.0177zm-.0342 4.12504c3.58568.0335 6.5423 2.83991 6.76275 6.41899a.40238332.40238332 0 0 1 .001.0127l.0117.36329c2.695322.83845 4.636817 3.2213 4.81547 6.06157a.40238332.40238332 0 0 1 .001.0127l.0117.39453a.40238332.40238332 0 0 1 .001.0127c-.00002 3.73228-3.00356 6.78198-6.735405 6.83893a.40238332.40238332 0 0 0-.001 0c-1.889225.0268-3.67838-.75427-4.98539-2.10158-1.25603 1.29556-2.95894 2.07058-4.774453 2.10158-3.731485.0573-6.82764-2.89785-6.942441-6.62798-.09244-3.12643 1.974016-5.86334 4.952189-6.7276.04335-3.59978 2.874732-6.58458 6.502982-6.752.126268-.006.252518-.008.378908-.007v-.001zm-.0078.80567c-.11152-.001-.223545.001-.334963.006-3.29287.15247-5.848807 2.90702-5.75395 6.20219a.40238332.40238332 0 0 1-.308595.40333c-2.780595.6672-4.7081 3.18777-4.62406 6.04595.102073 3.29937 2.824348 5.89943 6.12505 5.84868 1.726533-.0295 3.35723-.79686 4.480505-2.10842a.40238332.40238332 0 0 1 .61133 0c1.16625 1.36156 2.876398 2.13489 4.668983 2.10939 3.300692-.0503 5.942307-2.73242 5.943407-6.03325l-.0127-.375c-.165405-2.60808-1.986595-4.8102-4.517615-5.46196a.40238332.40238332 0 0 1-.301757-.4043c.002-.0617.0035-.12282.004-.18457l-.0127-.38673c-.196503-3.16357-2.796923-5.63157-5.96684-5.66117zm-.111325 19.30679a.40238335.40238335 0 0 1 .0332.002.40238335.40238335 0 0 1 .278322.13965c2.395045 2.29208 3.120775 2.10167 4.740273 3.14651a.40238332.40238332 0 0 1-.217775.74024h-4.828145a.40238332.40238332 0 0 1-.02635-.001h-4.807655a.40238335.40238335 0 0 1-.21875-.73926c1.621122-1.04584 2.347282-.85393 4.748082-3.15334a.40238332.40238332 0 0 1 .08301-.0693.40238332.40238332 0 0 1 .03515-.0205.40238332.40238332 0 0 1 .03615-.0166.40238332.40238332 0 0 1 .0381-.0127.40238332.40238332 0 0 1 .03905-.009.40238332.40238332 0 0 1 .0293-.004.40238335.40238335 0 0 1 .0381-.003zm.003.95314c-1.479688 1.37713-2.378955 1.86232-3.215845 2.27052h3.212915a.40238335.40238335 0 0 1 .04005 0h3.17776c-.836555-.40804-1.735733-.89394-3.21487-2.27052zM191.86626 1004.4419a16.000129 16.000129 0 0 0-.8877.017 16.000129 16.000129 0 0 0-15.25501 16.4748 16.000129 16.000129 0 0 0 16.23842 15.507 16.000129 16.000129 0 0 0 15.75403-15.9982l-.0303-.9825a16.000129 16.000129 0 0 0-15.81944-15.0177zm-.0342 4.1251c3.58568.034 6.5423 2.8399 6.76275 6.419a.40238332.40238332 0 0 1 .001.013l.0117.3633c2.69532.8384 4.63682 3.2213 4.81547 6.0615a.40238332.40238332 0 0 1 .001.013l.0117.3946a.40238332.40238332 0 0 1 .001.013c-.00002 3.7322-3.00356 6.7819-6.7354 6.8389a.40238332.40238332 0 0 0-.001 0c-1.88923.027-3.67838-.7543-4.98539-2.1016-1.25603 1.2956-2.95894 2.0706-4.77446 2.1016-3.73148.057-6.82764-2.8979-6.94244-6.628-.0924-3.1264 1.97402-5.8633 4.95219-6.7276.0434-3.5998 2.87473-6.5846 6.50298-6.752.12627-.01.25252-.01.37891-.01zm-.008.8057c-.11152-.001-.22354.001-.33496.01-3.29287.1524-5.84881 2.907-5.75395 6.2021a.40238332.40238332 0 0 1-.3086.4034c-2.78059.6672-4.7081 3.1877-4.62406 6.0459.10208 3.2994 2.82435 5.8995 6.12505 5.8487 1.72654-.029 3.35723-.7969 4.48051-2.1084a.40238332.40238332 0 0 1 .61133 0c1.16625 1.3615 2.8764 2.1349 4.66898 2.1094 3.30069-.05 5.94231-2.7324 5.94341-6.0333l-.0127-.375c-.16541-2.6081-1.9866-4.8102-4.51762-5.4619a.40238332.40238332 0 0 1-.30175-.4043c.002-.062.004-.1229.004-.1846l-.0127-.3867c-.19651-3.1636-2.79693-5.6316-5.96684-5.6612zm-.11132 19.3067a.40238335.40238335 0 0 1 .0332 0 .40238335.40238335 0 0 1 .27832.1397c2.39504 2.2921 3.12077 2.1017 4.74027 3.1465a.40238332.40238332 0 0 1-.21777.7402h-4.82815a.40238332.40238332 0 0 1-.0263-.001h-4.80765a.40238335.40238335 0 0 1-.21875-.7392c1.62112-1.0459 2.34728-.8539 4.74808-3.1534a.40238332.40238332 0 0 1 .083-.069.40238332.40238332 0 0 1 .0351-.02.40238332.40238332 0 0 1 .0362-.017.40238332.40238332 0 0 1 .0381-.013.40238332.40238332 0 0 1 .0391-.01.40238332.40238332 0 0 1 .0293 0 .40238335.40238335 0 0 1 .0381 0zm.003.9532c-1.47969 1.3771-2.37896 1.8623-3.21585 2.2705h3.21292a.40238335.40238335 0 0 1 .0401 0h3.17776c-.83656-.408-1.73574-.8939-3.21487-2.2705z"/>
  </g>
</svg>
