<svg xmlns="http://www.w3.org/2000/svg" width="224" height="320">
  <g transform="translate(0 -732.36214)">
    <rect width="208" height="303.99997" x="7.9999981" y="740.36212" fill="#fff" stroke="#fff" stroke-linecap="round" stroke-linejoin="round" stroke-width="16" ry="8.4250298"/>
    <path fill="#d0021b" d="M109.47718043 839.08544796a54.7372256 53.332784 0 0 0-52.18812327 54.91479918 54.7372256 53.332784 0 0 0 55.55240486 51.68892093A54.7372256 53.332784 0 0 0 166.7367812 892.362894l-.1035731-3.27470627a54.7372256 53.332784 0 0 0-57.15602767-50.00273977zm2.49230733 11.61446367a1.71070935 1.66681616 0 0 1 1.45328873.73892473l27.3686128 39.99958716a1.71070935 1.66681616 0 0 1 0 1.84894096l-27.3686128 39.999588a1.71070935 1.66681616 0 0 1-2.84644178 0l-27.3686128-39.999588a1.71070935 1.66681616 0 0 1 0-1.84894096l27.3686128-39.99958716a1.71070935 1.66681616 0 0 1 1.39315305-.73892473zm.03006784 4.66792076L86.68559351 892.362894l25.31396209 36.99506228 25.31396209-36.99506228-25.31396209-36.99506161zM31.52381876 751.1501545a13.68430656 13.33319648 0 0 0-13.04703097 13.72870028 13.68430656 13.33319648 0 0 0 13.88810138 12.9222307 13.68430656 13.33319648 0 0 0 13.47382995-13.331569l-.02589327-.8186766a13.68430656 13.33319648 0 0 0-14.28900709-12.50068539zm.62307684 2.90361601a.42767734.41670406 0 0 1 .36332219.1847312l6.84215328 9.99989714a.42767734.41670406 0 0 1 0 .46223526l-6.84215328 9.99989736a.42767734.41670406 0 0 1-.71161046 0l-6.84215328-9.99989736a.42767734.41670406 0 0 1 0-.46223526l6.84215328-9.99989715a.42767734.41670406 0 0 1 .34828827-.18473119zm.00751696 1.16698023l-6.3284906 9.24876574 6.3284906 9.2487659 6.3284906-9.2487659-6.3284906-9.24876574zm159.3523102 251.90208376a13.68430656 13.33319648 0 0 0-13.04703097 13.72870028 13.68430656 13.33319648 0 0 0 13.88810138 12.9222307 13.68430656 13.33319648 0 0 0 13.47382995-13.331569l-.02589327-.8186766a13.68430656 13.33319648 0 0 0-14.28900709-12.50068539zm.62307684 2.90361601a.42767734.41670406 0 0 1 .36332219.1847312l6.84215328 9.99989714a.42767734.41670406 0 0 1 0 .46223526l-6.84215328 9.99989736a.42767734.41670406 0 0 1-.71161046 0l-6.84215328-9.99989736a.42767734.41670406 0 0 1 0-.46223526l6.84215328-9.99989715a.42767734.41670406 0 0 1 .34828827-.18473119zm.00751696 1.16698023l-6.3284906 9.24876574 6.3284906 9.2487659 6.3284906-9.2487659-6.3284906-9.24876574z"/>
    <text x="19.625631" y="1033.4436" fill="#d0021b" font-family="sans-serif" font-size="40" font-weight="400" letter-spacing="0" style="line-height:125%" word-spacing="0">
      <tspan x="19.625631" y="1033.4436" font-size="37.5">Q</tspan>
    </text>
    <text x="180.13887" y="778.17804" fill="#d0021b" font-family="sans-serif" font-size="40" font-weight="400" letter-spacing="0" style="line-height:125%" word-spacing="0">
      <tspan x="180.13887" y="778.17804" font-size="37.5">Q</tspan>
    </text>
  </g>
</svg>
