<svg xmlns="http://www.w3.org/2000/svg" width="224" height="320">
  <g transform="translate(0 -732.36214)">
    <rect width="208" height="303.99997" x="7.9999981" y="740.36212" fill="#fff" stroke="#fff" stroke-linecap="round" stroke-linejoin="round" stroke-width="16" ry="8.4250298"/>
    <text x="25.573437" y="1031.8527" fill="#221e20" font-family="sans-serif" font-size="40" font-weight="400" letter-spacing="0" style="line-height:125%" word-spacing="0">
      <tspan x="25.573437" y="1031.8527" font-size="37.5">J</tspan>
    </text>
    <text x="191.3744" y="772.66626" fill="#221e20" font-family="sans-serif" font-size="40" font-weight="400" letter-spacing="0" style="line-height:125%" word-spacing="0">
      <tspan x="191.3744" y="772.66626" font-size="37.5">J</tspan>
    </text>
    <path fill="#221e20" d="M112.60104 828.36307a64.000516 64.000516 0 0 0-3.5508.0664 64.000516 64.000516 0 0 0-61.020024 65.89897 64.000516 64.000516 0 0 0 64.953654 62.02784A64.000516 64.000516 0 0 0 176 892.36359l-.12121-3.92971a64.000516 64.000516 0 0 0-63.27785-60.07081zm-.4375 12.91417a1.7893743 1.7893743 0 0 1 .1016 0 1.7893743 1.7893743 0 0 1 1.00391.33204c0-.00002 7.40204 5.09736 15.62123 12.16416 8.2192 7.06685 17.31124 15.98156 20.80094 24.40643 3.82273 9.22908 4.78598 21.06763-.0782 30.15651-4.37659 8.17766-13.56913 14.67491-22.93378 15.25792-3.55835.2216-7.19168-1.82418-10.21882-3.72659-2.15092-1.35175-3.60137-2.46386-4.46098-3.14455-.85961.68067-2.31006 1.7928-4.46098 3.14455-3.02714 1.90241-6.66047 3.94819-10.218818 3.72659-9.36465-.58301-18.55719-7.08026-22.93378-15.25792-4.8641-9.08888-3.90087-20.92743-.0782-30.15651 3.4897-8.42487 12.58174-17.33958 20.80094-24.40643 8.219188-7.0668 15.621228-12.16416 15.621228-12.16416a1.7893743 1.7893743 0 0 1 .95313-.32814 1.7893743 1.7893743 0 0 1 .30078.012 1.7893743 1.7893743 0 0 1 .1796-.016zm-.16406 3.83207c-1.05579.73618-7.16238 5.01972-14.558718 11.37899-8.0589 6.92905-16.85871 15.90303-19.82438 23.06268-3.48067 8.40307-4.21933 19.35982-.0782 27.09788 3.74067 6.98946 12.19924 12.88519 20.00408 13.37119 1.76568.1098 5.291268-1.42479 8.089908-3.18361 2.79864-1.75881 4.96878-3.56252 4.96878-3.56252a1.7893743 1.7893743 0 0 1 1.39065-.42189 1.7893743 1.7893743 0 0 1 1.40625.42189s2.17016 1.80371 4.9688 3.56252c2.79862 1.75882 6.32423 3.29361 8.08991 3.18361 7.80484-.486 16.26339-6.38173 20.00406-13.37119 4.14121-7.73806 3.40255-18.69481-.0782-27.09788-2.96567-7.15965-11.76548-16.13363-19.82438-23.06268-7.39634-6.35927-13.50293-10.64283-14.55872-11.37899zm-.3086 78.46937a1.7893743 1.7893743 0 0 1 .1796.004 1.7893743 1.7893743 0 0 1 .1758.0234 1.7893743 1.7893743 0 0 1 1.01563.5586c10.68762 10.23971 13.91289 9.37836 21.12517 14.03136a1.7893743 1.7893743 0 0 1-.97265 3.28908H111.7455a1.7893743 1.7893743 0 0 1-.0274 0H90.249182a1.7893743 1.7893743 0 0 1-.96876-3.28908c7.21778-4.65656 10.43754-3.78641 21.144708-14.0509a1.7893743 1.7893743 0 0 1 .4414-.34374 1.7893743 1.7893743 0 0 1 .1602-.0782 1.7893743 1.7893743 0 0 1 .168-.0624 1.7893743 1.7893743 0 0 1 .02-.008 1.7893743 1.7893743 0 0 1 .1094-.0274 1.7893743 1.7893743 0 0 1 .043-.012 1.7893743 1.7893743 0 0 1 .0546-.008 1.7893743 1.7893743 0 0 1 .1446-.02 1.7893743 1.7893743 0 0 1 .125-.008zm.043 4.23441c-6.57894 6.12197-10.57995 8.27903-14.300898 10.09382h14.285278a1.7893743 1.7893743 0 0 1 .1368 0h14.17589c-3.72041-1.81459-7.71932-3.97269-14.29699-10.09382zM31.883261 748.46894a16.000129 16.000129 0 0 0-.8877.0166 16.000129 16.000129 0 0 0-15.255006 16.47475 16.000129 16.000129 0 0 0 16.238413 15.50696 16.000129 16.000129 0 0 0 15.754033-15.99818l-.0303-.98242a16.000129 16.000129 0 0 0-15.819465-15.01771zm-.109375 3.22855a.44734357.44734357 0 0 1 .0254 0 .44734357.44734357 0 0 1 .250977.083c0-.00001 1.85051 1.27434 3.905308 3.04104 2.0548 1.76671 4.32781 3.99539 5.200235 6.1016.955682 2.30727 1.196495 5.26691-.01955 7.53913-1.094148 2.04442-3.392283 3.66873-5.733445 3.81448-.889588.0554-1.79792-.45604-2.554705-.93165-.53773-.33793-.900343-.61596-1.115245-.78613-.214903.17016-.577515.4482-1.115245.78613-.756785.47561-1.665118.98705-2.554705.93165-2.341162-.14575-4.639297-1.77006-5.733444-3.81448-1.216025-2.27222-.975218-5.23186-.01955-7.53913.872424-2.10621 3.145434-4.33489 5.200234-6.1016 2.054797-1.7667 3.905307-3.04104 3.905307-3.04104a.44734357.44734357 0 0 1 .238283-.082.44734357.44734357 0 0 1 .0752.003.44734357.44734357 0 0 1 .0449-.004zm-.04101.95801c-.263948.18405-1.790595 1.25493-3.63968 2.84475-2.014725 1.73226-4.214677 3.97576-4.956095 5.76567-.870167 2.10077-1.054832 4.83996-.01955 6.77447.935168 1.74737 3.04981 3.2213 5.00102 3.3428.44142.0275 1.322817-.3562 2.022477-.7959.69966-.43971 1.242195-.89063 1.242195-.89063a.44734357.44734357 0 0 1 .347663-.10548.44734357.44734357 0 0 1 .351562.10548s.54254.45092 1.2422.89063c.699655.4397 1.581058.8234 2.022478.7959 1.95121-.1215 4.065847-1.59543 5.001015-3.3428 1.035302-1.93451.850637-4.6737-.01955-6.77447-.741418-1.78991-2.94137-4.03341-4.956095-5.76567-1.849085-1.58982-3.375733-2.66071-3.63968-2.84475zm-.07715 19.61735a.44734357.44734357 0 0 1 .0449.001.44734357.44734357 0 0 1 .04395.006.44734357.44734357 0 0 1 .253907.13965c2.671905 2.55992 3.478223 2.34459 5.281293 3.50784a.44734357.44734357 0 0 1-.243163.82227h-5.367232a.44734357.44734357 0 0 1-.0069 0h-5.36723a.44734357.44734357 0 0 1-.24219-.82227c1.804445-1.16414 2.609385-.94661 5.286177-3.51273a.44734357.44734357 0 0 1 .11035-.0859.44734357.44734357 0 0 1 .04005-.0195.44734357.44734357 0 0 1 .042-.0156.44734357.44734357 0 0 1 .005-.002.44734357.44734357 0 0 1 .02735-.007.44734357.44734357 0 0 1 .01075-.003.44734357.44734357 0 0 1 .01365-.002.44734357.44734357 0 0 1 .03615-.005.44734357.44734357 0 0 1 .03125-.002zm.01075 1.0586c-1.644735 1.53049-2.644988 2.06976-3.575225 2.52345h3.57132a.44734357.44734357 0 0 1 .0342 0h3.543972c-.930102-.45364-1.92983-.99317-3.574247-2.52345zM191.86626 1004.4419a16.000129 16.000129 0 0 0-.8877.017 16.000129 16.000129 0 0 0-15.25501 16.4748 16.000129 16.000129 0 0 0 16.23842 15.507 16.000129 16.000129 0 0 0 15.75403-15.9982l-.0303-.9824a16.000129 16.000129 0 0 0-15.81946-15.0178zm-.10937 3.2286a.44734357.44734357 0 0 1 .0254 0 .44734357.44734357 0 0 1 .25097.083s1.85051 1.2743 3.90531 3.041 4.32781 3.9954 5.20024 6.1016c.95568 2.3073 1.19649 5.2669-.0196 7.5392-1.09415 2.0444-3.39229 3.6687-5.73345 3.8144-.88959.055-1.79792-.456-2.5547-.9316-.53773-.3379-.90035-.616-1.11525-.7861-.2149.1701-.57751.4482-1.11524.7861-.75679.4756-1.66512.987-2.55471.9316-2.34116-.1457-4.6393-1.77-5.73344-3.8144-1.21603-2.2723-.97522-5.2319-.0195-7.5392.87242-2.1062 3.14543-4.3349 5.20023-6.1016 2.0548-1.7667 3.90531-3.041 3.90531-3.041a.44734357.44734357 0 0 1 .23828-.082.44734357.44734357 0 0 1 .0752 0 .44734357.44734357 0 0 1 .0449 0zm-.041.958c-.26395.1841-1.7906 1.2549-3.63968 2.8448-2.01473 1.7322-4.21468 3.9757-4.9561 5.7656-.87017 2.1008-1.05483 4.84-.0196 6.7745.93517 1.7474 3.04981 3.2213 5.00102 3.3428.44142.028 1.32282-.3562 2.02248-.7959.69966-.4397 1.24219-.8906 1.24219-.8906a.44734357.44734357 0 0 1 .34767-.1055.44734357.44734357 0 0 1 .35156.1055s.54254.4509 1.2422.8906c.69965.4397 1.58106.8234 2.02248.7959 1.95121-.1215 4.06584-1.5954 5.00101-3.3428 1.0353-1.9345.85064-4.6737-.0196-6.7745-.74142-1.7899-2.94137-4.0334-4.95609-5.7656-1.84909-1.5899-3.37574-2.6608-3.63968-2.8448zm-.0771 19.6174a.44734357.44734357 0 0 1 .0449 0 .44734357.44734357 0 0 1 .0439.01.44734357.44734357 0 0 1 .2539.1396c2.67191 2.5599 3.47823 2.3446 5.2813 3.5078a.44734357.44734357 0 0 1-.24317.8223h-5.36723a.44734357.44734357 0 0 1-.007 0h-5.36723a.44734357.44734357 0 0 1-.24219-.8223c1.80445-1.1641 2.60939-.9466 5.28618-3.5127a.44734357.44734357 0 0 1 .11035-.086.44734357.44734357 0 0 1 .0401-.019.44734357.44734357 0 0 1 .042-.016.44734357.44734357 0 0 1 .005 0 .44734357.44734357 0 0 1 .0273-.01.44734357.44734357 0 0 1 .0108 0 .44734357.44734357 0 0 1 .0137 0 .44734357.44734357 0 0 1 .0361-.01.44734357.44734357 0 0 1 .0312 0zm.0108 1.0586c-1.64474 1.5304-2.64499 2.0697-3.57523 2.5234h3.57132a.44734357.44734357 0 0 1 .0342 0h3.54397c-.9301-.4536-1.92983-.9932-3.57424-2.5234z"/>
  </g>
</svg>
