<?xml version="1.0" encoding="UTF-8" standalone="no"?>
<!-- Created with Inkscape (http://www.inkscape.org/) -->

<svg
   xmlns:osb="http://www.openswatchbook.org/uri/2009/osb"
   xmlns:dc="http://purl.org/dc/elements/1.1/"
   xmlns:cc="http://creativecommons.org/ns#"
   xmlns:rdf="http://www.w3.org/1999/02/22-rdf-syntax-ns#"
   xmlns:svg="http://www.w3.org/2000/svg"
   xmlns="http://www.w3.org/2000/svg"
   xmlns:sodipodi="http://sodipodi.sourceforge.net/DTD/sodipodi-0.dtd"
   xmlns:inkscape="http://www.inkscape.org/namespaces/inkscape"
   width="224"
   height="320"
   viewBox="0 0 224 320"
   id="svg2"
   version="1.1"
   inkscape:version="0.91 r13725"
   sodipodi:docname="HEARTS.ACE.svg">
  <defs
     id="defs4">
    <linearGradient
       id="linearGradient5747"
       osb:paint="solid">
      <stop
         style="stop-color:#2d2d2d;stop-opacity:1;"
         offset="0"
         id="stop5749" />
    </linearGradient>
    <filter
       id="filter4152"
       style="color-interpolation-filters:sRGB">
      <feBlend
         id="feBlend4154"
         in2="BackgroundImage"
         mode="lighten" />
    </filter>
    <filter
       style="color-interpolation-filters:sRGB"
       id="filter4724">
      <feBlend
         mode="lighten"
         in2="BackgroundImage"
         id="feBlend4726" />
    </filter>
  </defs>
  <sodipodi:namedview
     id="base"
     pagecolor="#b0b0af"
     bordercolor="#666666"
     borderopacity="1.0"
     inkscape:pageopacity="0"
     inkscape:pageshadow="2"
     inkscape:zoom="1.2109204"
     inkscape:cx="138.74275"
     inkscape:cy="204.65043"
     inkscape:document-units="px"
     inkscape:current-layer="layer1"
     showgrid="true"
     inkscape:window-width="1366"
     inkscape:window-height="681"
     inkscape:window-x="0"
     inkscape:window-y="24"
     inkscape:window-maximized="1"
     units="px"
     inkscape:showpageshadow="false">
    <inkscape:grid
       type="xygrid"
       id="grid4136"
       color="#b0b0af"
       opacity="0.1254902"
       empcolor="#b0b0af"
       empopacity="0.25098039" />
  </sodipodi:namedview>
  <metadata
     id="metadata7">
    <rdf:RDF>
      <cc:Work
         rdf:about="">
        <dc:format>image/svg+xml</dc:format>
        <dc:type
           rdf:resource="http://purl.org/dc/dcmitype/StillImage" />
        <dc:title></dc:title>
      </cc:Work>
    </rdf:RDF>
  </metadata>
  <g
     inkscape:label="Layer 1"
     inkscape:groupmode="layer"
     id="layer1"
     transform="translate(0,-732.36214)">
    <rect
       style="fill:#ffffff;fill-opacity:1;stroke:#ffffff;stroke-width:16;stroke-linecap:round;stroke-linejoin:round;stroke-miterlimit:4;stroke-dasharray:none;stroke-opacity:1;"
       id="rect4159"
       width="208"
       height="303.99997"
       x="7.9999981"
       y="740.36212"
       ry="8.4250298" />
    <text
       xml:space="preserve"
       style="font-style:normal;font-weight:normal;font-size:40px;line-height:125%;font-family:sans-serif;letter-spacing:0px;word-spacing:0px;fill:#d0021b;fill-opacity:1;stroke:none;stroke-width:1px;stroke-linecap:butt;stroke-linejoin:miter;stroke-opacity:1"
       x="19.573437"
       y="1034.201"
       id="text5865"
       sodipodi:linespacing="125%"><tspan
         sodipodi:role="line"
         id="tspan5867"
         x="19.573437"
         y="1034.201"
         style="font-size:37.5px">A</tspan></text>
    <text
       xml:space="preserve"
       style="font-style:normal;font-weight:normal;font-size:40px;line-height:125%;font-family:sans-serif;letter-spacing:0px;word-spacing:0px;fill:#000000;fill-opacity:1;stroke:none;stroke-width:1px;stroke-linecap:butt;stroke-linejoin:miter;stroke-opacity:1"
       x="16"
       y="1036.3622"
       id="text5869"
       sodipodi:linespacing="125%"><tspan
         sodipodi:role="line"
         id="tspan5871"
         x="16"
         y="1036.3622"></tspan></text>
    <text
       sodipodi:linespacing="125%"
       id="text5873"
       y="776.66626"
       x="179.50349"
       style="font-style:normal;font-weight:normal;font-size:40px;line-height:125%;font-family:sans-serif;letter-spacing:0px;word-spacing:0px;fill:#d0021b;fill-opacity:1;stroke:none;stroke-width:1px;stroke-linecap:butt;stroke-linejoin:miter;stroke-opacity:1"
       xml:space="preserve"><tspan
         style="font-size:37.5px"
         y="776.66626"
         x="179.50349"
         id="tspan5875"
         sodipodi:role="line">A</tspan></text>
    <path
       inkscape:connector-curvature="0"
       style="fill:#d0021b;fill-opacity:1;stroke:none;stroke-width:2;stroke-linecap:round;stroke-linejoin:round;stroke-miterlimit:4;stroke-dasharray:none;stroke-opacity:1"
       d="m 112.60104,828.36307 a 64.000516,64.000516 0 0 0 -3.5508,0.0664 64.000516,64.000516 0 0 0 -61.020024,65.89897 64.000516,64.000516 0 0 0 64.953654,62.02784 A 64.000516,64.000516 0 0 0 176,892.36359 l -0.12121,-3.92971 a 64.000516,64.000516 0 0 0 -63.27785,-60.07081 z m -14.511828,27.50412 c 3.483648,-0.2168 7.040368,1.78216 10.003978,3.64457 2.10764,1.32463 3.52683,2.4128 4.36723,3.07815 0.84267,-0.66615 2.26196,-1.755 4.36722,-3.07815 2.9636,-1.86241 6.52035,-3.86137 10.004,-3.64457 9.16809,0.57101 18.16855,6.92746 22.4533,14.93372 4.76206,8.89787 3.81675,20.48841 0.0742,29.52368 -3.41649,8.24807 -12.31672,16.97606 -20.36344,23.89471 -8.04673,6.91846 -15.29311,11.91026 -15.29311,11.91026 a 1.7525635,1.7525635 0 0 1 -1.23047,0.28906 1.7526126,1.7526126 0 0 1 -0.004,0 1.7526126,1.7526126 0 0 1 -1.25001,-0.28906 c 0,0 -7.24637,-4.9918 -15.293098,-11.91026 -8.04672,-6.91865 -16.94696,-15.64664 -20.36344,-23.89471 -3.74251,-9.03527 -4.68784,-20.62581 0.0742,-29.52368 4.28475,-8.00626 13.2852,-14.36271 22.45332,-14.93372 z m 0.21876,3.49613 c -7.6411,0.476 -15.92393,6.24709 -19.5861,13.08995 -4.05429,7.57546 -3.33343,18.3046 0.0742,26.53147 2.90343,7.00946 11.52052,15.79485 19.41032,22.5783 7.241298,6.22607 13.220488,10.41675 14.254008,11.13681 1.03353,-0.72008 7.01272,-4.91074 14.25402,-11.13681 7.8898,-6.78345 16.50689,-15.56884 19.41032,-22.5783 3.40764,-8.22687 4.12459,-18.95601 0.0704,-26.53147 -3.66217,-6.84286 -11.9411,-12.61395 -19.5822,-13.08995 -1.72868,-0.1076 -5.18202,1.39539 -7.92193,3.11721 -2.73992,1.72201 -4.86332,3.4844 -4.86332,3.4844 a 1.7518254,1.7518254 0 0 1 -1.36721,0.41017 1.7518254,1.7518254 0 0 1 -1.37109,-0.41017 c 0,0 -2.12341,-1.76239 -4.86334,-3.4844 -2.73992,-1.72182 -6.18935,-3.22521 -7.918018,-3.11721 z"
       id="path4716" />
    <path
       id="path6636"
       d="m 112.60104,828.36307 a 64.000516,64.000516 0 0 0 -3.5508,0.0664 64.000516,64.000516 0 0 0 -61.020024,65.89897 64.000516,64.000516 0 0 0 64.953654,62.02784 A 64.000516,64.000516 0 0 0 176,892.36359 l -0.12121,-3.92971 a 64.000516,64.000516 0 0 0 -63.27785,-60.07081 z m -14.511828,27.50412 c 3.483648,-0.2168 7.040368,1.78216 10.003978,3.64457 2.10764,1.32463 3.52683,2.4128 4.36723,3.07815 0.84267,-0.66615 2.26196,-1.755 4.36722,-3.07815 2.9636,-1.86241 6.52035,-3.86137 10.004,-3.64457 9.16809,0.57101 18.16855,6.92746 22.4533,14.93372 4.76206,8.89787 3.81675,20.48841 0.0742,29.52368 -3.41649,8.24807 -12.31672,16.97606 -20.36344,23.89471 -8.04673,6.91846 -15.29311,11.91026 -15.29311,11.91026 a 1.7525635,1.7525635 0 0 1 -1.23047,0.28906 1.7526126,1.7526126 0 0 1 -0.004,0 1.7526126,1.7526126 0 0 1 -1.25001,-0.28906 c 0,0 -7.24637,-4.9918 -15.293098,-11.91026 -8.04672,-6.91865 -16.94696,-15.64664 -20.36344,-23.89471 -3.74251,-9.03527 -4.68784,-20.62581 0.0742,-29.52368 4.28475,-8.00626 13.2852,-14.36271 22.45332,-14.93372 z m 0.21876,3.49613 c -7.6411,0.476 -15.92393,6.24709 -19.5861,13.08995 -4.05429,7.57546 -3.33343,18.3046 0.0742,26.53147 2.90343,7.00946 11.52052,15.79485 19.41032,22.5783 7.241298,6.22607 13.220488,10.41675 14.254008,11.13681 1.03353,-0.72008 7.01272,-4.91074 14.25402,-11.13681 7.8898,-6.78345 16.50689,-15.56884 19.41032,-22.5783 3.40764,-8.22687 4.12459,-18.95601 0.0704,-26.53147 -3.66217,-6.84286 -11.9411,-12.61395 -19.5822,-13.08995 -1.72868,-0.1076 -5.18202,1.39539 -7.92193,3.11721 -2.73992,1.72201 -4.86332,3.4844 -4.86332,3.4844 a 1.7518254,1.7518254 0 0 1 -1.36721,0.41017 1.7518254,1.7518254 0 0 1 -1.37109,-0.41017 c 0,0 -2.12341,-1.76239 -4.86334,-3.4844 -2.73992,-1.72182 -6.18935,-3.22521 -7.918018,-3.11721 z"
       style="fill:#d0021b;fill-opacity:1;stroke:none;stroke-width:2;stroke-linecap:round;stroke-linejoin:round;stroke-miterlimit:4;stroke-dasharray:none;stroke-opacity:1"
       inkscape:connector-curvature="0" />
    <path
       inkscape:connector-curvature="0"
       style="fill:#d0021b;fill-opacity:1;stroke:none;stroke-width:2;stroke-linecap:round;stroke-linejoin:round;stroke-miterlimit:4;stroke-dasharray:none;stroke-opacity:1"
       d="m 31.883261,748.46894 a 16.000129,16.000129 0 0 0 -0.8877,0.0166 16.000129,16.000129 0 0 0 -15.255006,16.47475 16.000129,16.000129 0 0 0 16.238413,15.50696 A 16.000129,16.000129 0 0 0 47.733,764.46907 l -0.0303,-0.98242 A 16.000129,16.000129 0 0 0 31.883235,748.46894 Z m -3.627957,6.87603 c 0.870912,-0.0542 1.760092,0.44554 2.500994,0.91115 0.52691,0.33115 0.881708,0.6032 1.091808,0.76953 0.210667,-0.16653 0.56549,-0.43875 1.091805,-0.76953 0.7409,-0.46561 1.630087,-0.96535 2.501,-0.91115 2.292022,0.14276 4.542137,1.73187 5.613324,3.73343 1.190515,2.22447 0.954188,5.12211 0.01855,7.38092 -0.854122,2.06202 -3.079179,4.24402 -5.090859,5.97368 -2.011683,1.72962 -3.823278,2.97757 -3.823278,2.97757 a 0.43814087,0.43814087 0 0 1 -0.307617,0.0723 0.43815314,0.43815314 0 0 1 -10e-4,0 0.43815314,0.43815314 0 0 1 -0.312503,-0.0723 c 0,0 -1.811592,-1.24795 -3.823274,-2.97757 -2.01168,-1.72966 -4.23674,-3.91166 -5.09086,-5.97368 -0.935627,-2.25881 -1.17196,-5.15645 0.01855,-7.38092 1.071188,-2.00156 3.3213,-3.59067 5.61333,-3.73343 z m 0.05469,0.87404 c -1.910275,0.119 -3.980982,1.56177 -4.896525,3.27248 -1.013572,1.89387 -0.833357,4.57615 0.01855,6.63287 0.725858,1.75237 2.88013,3.94871 4.85258,5.64458 1.810324,1.55651 3.305122,2.60418 3.563502,2.7842 0.258382,-0.18002 1.75318,-1.22769 3.563505,-2.7842 1.97245,-1.69587 4.126722,-3.89221 4.85258,-5.64458 0.851909,-2.05672 1.031147,-4.739 0.0176,-6.63287 -0.915543,-1.71071 -2.985275,-3.15348 -4.89555,-3.27248 -0.43217,-0.0269 -1.295505,0.34884 -1.980483,0.7793 -0.68498,0.4305 -1.21583,0.8711 -1.21583,0.8711 a 0.43795634,0.43795634 0 0 1 -0.341802,0.10254 0.43795634,0.43795634 0 0 1 -0.342773,-0.10254 c 0,0 -0.530852,-0.4406 -1.215835,-0.8711 -0.68498,-0.43046 -1.547337,-0.8063 -1.979504,-0.7793 z"
       id="path6638" />
    <path
       id="path6640"
       d="m 191.86626,1004.4419 a 16.000129,16.000129 0 0 0 -0.8877,0.017 16.000129,16.000129 0 0 0 -15.25501,16.4748 16.000129,16.000129 0 0 0 16.23842,15.507 16.000129,16.000129 0 0 0 15.75403,-15.9982 l -0.0303,-0.9824 a 16.000129,16.000129 0 0 0 -15.81947,-15.0178 z m -3.62796,6.8761 c 0.87092,-0.054 1.7601,0.4455 2.501,0.9111 0.52691,0.3312 0.88171,0.6032 1.09181,0.7696 0.21066,-0.1666 0.56549,-0.4388 1.0918,-0.7696 0.7409,-0.4656 1.63009,-0.9653 2.501,-0.9111 2.29202,0.1427 4.54214,1.7318 5.61332,3.7334 1.19052,2.2245 0.95419,5.1221 0.0186,7.3809 -0.85412,2.062 -3.07917,4.244 -5.09085,5.9737 -2.01169,1.7296 -3.82328,2.9776 -3.82328,2.9776 a 0.43814087,0.43814087 0 0 1 -0.30762,0.072 0.43815314,0.43815314 0 0 1 -0.001,0 0.43815314,0.43815314 0 0 1 -0.3125,-0.072 c 0,0 -1.81159,-1.248 -3.82328,-2.9776 -2.01168,-1.7297 -4.23674,-3.9117 -5.09086,-5.9737 -0.93562,-2.2588 -1.17196,-5.1564 0.0186,-7.3809 1.07119,-2.0016 3.3213,-3.5907 5.61333,-3.7334 z m 0.0547,0.874 c -1.91027,0.119 -3.98098,1.5618 -4.89652,3.2725 -1.01357,1.8939 -0.83336,4.5761 0.0186,6.6329 0.72586,1.7523 2.88013,3.9487 4.85258,5.6445 1.81032,1.5566 3.30512,2.6042 3.5635,2.7842 0.25838,-0.18 1.75318,-1.2276 3.56351,-2.7842 1.97245,-1.6958 4.12672,-3.8922 4.85258,-5.6445 0.8519,-2.0568 1.03114,-4.739 0.0176,-6.6329 -0.91555,-1.7107 -2.98528,-3.1535 -4.89555,-3.2725 -0.43217,-0.027 -1.29551,0.3489 -1.98049,0.7793 -0.68498,0.4305 -1.21583,0.8711 -1.21583,0.8711 a 0.43795634,0.43795634 0 0 1 -0.3418,0.1026 0.43795634,0.43795634 0 0 1 -0.34277,-0.1026 c 0,0 -0.53085,-0.4406 -1.21584,-0.8711 -0.68498,-0.4304 -1.54733,-0.8063 -1.9795,-0.7793 z"
       style="fill:#d0021b;fill-opacity:1;stroke:none;stroke-width:2;stroke-linecap:round;stroke-linejoin:round;stroke-miterlimit:4;stroke-dasharray:none;stroke-opacity:1"
       inkscape:connector-curvature="0" />
  </g>
</svg>
